<svg xmlns="http://www.w3.org/2000/svg" viewBox="0 0 138 57"><style>.st0{fill:#2351b5}</style><path class="st0" d="M76.1 32.6c-.2 1.2-.4 2.3-.8 3.3s-.9 1.8-1.5 2.4-1.4.9-2.3.9c-.6 0-1.1-.1-1.5-.4s-.7-.5-.8-.8V23.2c.3-.9.7-1.5 1.3-2 .6-.4 1.2-.7 1.9-.7.2 0 .6.1 1 .2s.9.5 1.3 1c.5.5.9 1.4 1.2 2.5.3 1.1.5 2.7.5 4.6-.1 1.4-.2 2.6-.3 3.8m4.9-13c-.8-1-1.8-1.7-2.9-2.2s-2.2-.7-3.4-.7c-1.3 0-2.4.2-3.3.7-.9.4-1.7 1-2.3 1.6v-4h-7.6v41.8l7.6-1.9V42c.4.5 1 .9 1.7 1.3.8.4 1.8.6 3.2.6 1.9 0 3.4-.4 4.7-1.2 1.3-.8 2.3-1.9 3-3.3.7-1.3 1.3-2.9 1.6-4.6.3-1.7.5-3.4.5-5.1 0-2.4-.2-4.4-.7-6.1-.7-1.6-1.3-2.9-2.1-4M106.9 26.2c.2-1.3.5-2.4.9-3.4s.8-1.7 1.3-2.3c.5-.6 1-.9 1.6-.9.5 0 1 .3 1.4.8s.6 1.4.6 2.6c0 1-.2 1.9-.5 2.7-.3.8-.8 1.6-1.3 2.2-.6.7-1.2 1.2-2 1.6s-1.6.6-2.5.7c.1-1.3.3-2.7.5-4m30.2-6.4c-.2-.5-.5-1.1-1-1.5-.4-.5-.9-.8-1.4-1.1-.5-.3-1.2-.4-1.8-.4-1.1 0-2.2.4-3.1 1.1-1 .7-1.8 1.5-2.6 2.5V17h-7.6v17.5c-.4.6-.8 1.1-1.2 1.6-.5.7-1.1 1.2-1.7 1.7s-1.4.9-2.2 1.1c-.8.3-1.8.4-2.8.4-1.9 0-3.2-.5-4-1.5s-1.2-2.7-1.2-5.1c1.3-.1 2.6-.3 3.8-.8 1.3-.4 2.4-1.1 3.3-1.9 1-.8 1.7-1.8 2.3-3.1.6-1.2.9-2.6.9-4.2 0-.3 0-.8-.1-1.4-.1-.7-.4-1.4-.8-2.1s-1.1-1.3-2-1.9c-.9-.5-2.2-.8-3.9-.8-2.2 0-4.1.5-5.5 1.5-1.5 1-2.6 2.2-3.4 3.7s-1.4 3.1-1.8 4.9c-.3 1.8-.5 3.4-.5 4.9 0 2 .2 3.7.7 5.2-.1.2-.2.3-.3.5-.7.9-1.5 1.3-2.6 1.3-1 0-1.7-.2-2.1-.7s-.6-1.5-.6-2.9v-18h-7.6v18.6c0 2.5.5 4.5 1.6 6s3 2.3 5.7 2.3c.7 0 1.5-.1 2.4-.3s1.8-.7 2.7-1.4c.8-.6 1.4-1.4 2.1-2.4.3.5.6.9 1 1.3.9 1 2 1.7 3.3 2.2s2.7.7 4.2.7c1.8 0 3.4-.3 4.7-.8 1.3-.6 2.5-1.3 3.5-2.2.8-.8 1.6-1.6 2.2-2.6v7.9l7.6-4.4V23.4c.6-.6 1.1-1.1 1.6-1.5s1-.6 1.6-.6c.5 0 .8.2 1 .5.2.4.4.7.6 1.1s.4.8.7 1.1c.3.4.9.5 1.7.5 1.1 0 1.9-.3 2.4-1s.7-1.4.7-2.1c-.1-.5-.3-1-.5-1.6M90.9 15.1c1.3 0 2.4-.5 3.4-1.4.9-.9 1.4-2 1.4-3.4 0-1.3-.5-2.5-1.4-3.4s-2.1-1.4-3.4-1.4-2.4.5-3.4 1.4c-.9.9-1.4 2.1-1.4 3.4s.5 2.4 1.4 3.4c.9.9 2 1.4 3.4 1.4M51.9 32.6c-.2 1.2-.4 2.3-.8 3.3s-.9 1.8-1.5 2.4-1.4.9-2.3.9c-.6 0-1.1-.1-1.5-.4s-.7-.5-.8-.8V23.2c.3-.9.7-1.5 1.3-2 .6-.4 1.2-.7 1.9-.7.2 0 .6.1 1 .2s.9.5 1.4 1 .9 1.4 1.2 2.5c.3 1.1.5 2.7.5 4.6-.2 1.4-.2 2.6-.4 3.8zm-28.3-4.3c0 .5 0 1-.1 1.5s-.2 1-.3 1.4c-.1.2-.1.4-.2.5-.3.8-.7 1.6-1.1 2.2-.2.2-.3.4-.5.6-.7.8-1.5 1.5-2.5 2-.6.3-1.3.6-2 .7-.3.1-.7.1-1 .1-.8 0-1.6-.2-2.3-.5-1-.5-2-1.3-2.8-2.5-.5-.8-.9-1.7-1.3-2.8-.1-.3-.1-.5-.2-.8 0-.1-.1-.2-.1-.4v-.2c-.3-1.6-.5-3.5-.5-5.6 0-.7 0-1.5.1-2.3.1-1.4.2-2.8.5-4.2.1-.9.3-1.7.5-2.5.3-1.3.7-2.5 1.2-3.6v-.1c.1-.1.1-.3.2-.4.7-1.7 1.7-3.1 2.8-4.2.2-.2.4-.4.7-.6 1.1-.8 2.4-1.2 3.9-1.2 1 0 1.8.2 2.5.5.3.2.6.3.8.5.3.3.6.6.9 1 .4.5.6 1 .9 1.5v19.4h-.1zm33.2-8.7c-.8-1-1.8-1.7-2.9-2.2s-2.2-.7-3.4-.7c-1.3 0-2.4.2-3.3.7-.9.4-1.7 1-2.3 1.6v-4h-7.6v22c-.4.2-.9.4-1.3.4-.3 0-.6 0-.8-.1-.4-.1-.7-.2-1-.4-.2-.1-.3-.2-.5-.4-.3-.3-.5-.6-.7-.9-.2-.3-.3-.7-.5-1.1-.2-.8-.4-1.6-.5-2.5 0-.6-.1-1.1-.1-1.6V.5h-8.3v3.4s-.8-.6-1.7-1.2c-.6-.4-1.2-.7-1.8-.9-1.5-.6-3-.9-4.5-.9-.9 0-1.8.1-2.6.3-1.4.3-2.7.8-3.9 1.5-.2.1-.5.3-.7.5-2 1.5-3.6 3.4-4.9 5.7-.8 1.5-1.4 3.1-2 4.7-.3 1-.6 1.9-.8 3-.2.9-.3 1.8-.5 2.7-.3 1.8-.4 3.6-.4 5.4 0 1.5.1 3 .3 4.3v.4c.2 1.4.5 2.8 1 4 .4 1 .8 1.9 1.2 2.8.5 1 1.1 1.9 1.7 2.6.1.1.2.3.3.4.3.4.7.7 1 1.1 1.1 1 2.2 1.7 3.5 2.3l.9.3c1 .3 1.9.5 2.8.7.4 0 .9.1 1.3.1 2.2 0 4.1-.5 5.8-1.6.4-.2.7-.5 1-.7 1.9-1.5 3.3-3.4 4.1-5.6.2 1 .4 2 .7 2.8.5 1.4 1.2 2.5 2.1 3.3 1 .9 2.2 1.5 3.4 1.7.4.1.8.1 1.3.1 1.2 0 2.3-.3 3.3-.8.3-.2.7-.4 1-.6l.1-.1c.1 0 .1-.1.2-.1v14.7l7.6-1.9V42c.4.5 1 .9 1.7 1.3.8.4 1.8.6 3.2.6 1.9 0 3.4-.4 4.7-1.2 1.3-.8 2.2-1.9 3-3.3.7-1.3 1.3-2.9 1.6-4.6.3-1.7.4-3.4.4-5.1 0-2.4-.2-4.4-.7-6.1 0-1.6-.7-2.9-1.5-4z"/></svg>