<?xml version="1.0" encoding="UTF-8" standalone="no"?>
<!DOCTYPE svg PUBLIC "-//W3C//DTD SVG 1.1//EN" "http://www.w3.org/Graphics/SVG/1.1/DTD/svg11.dtd">
<svg width="100%" height="100%" viewBox="0 0 74 81" version="1.1" xmlns="http://www.w3.org/2000/svg" xmlns:xlink="http://www.w3.org/1999/xlink" xml:space="preserve" xmlns:serif="http://www.serif.com/" style="fill-rule:evenodd;clip-rule:evenodd;stroke-linejoin:round;stroke-miterlimit:1.41421;">
    <g transform="matrix(1,0,0,1,-14.2441,-14.601)">
        <path d="M22.029,74.757L14.244,95.204L16.354,95.204L18.55,89.159L27.319,89.159L29.571,95.204L31.682,95.204L23.94,74.757L22.029,74.757ZM19.191,87.434L22.884,77.253L22.941,77.253L26.677,87.434L19.191,87.434Z" style="fill:rgb(0,120,215);fill-rule:nonzero;"/>
    </g>
    <g transform="matrix(1,0,0,1,-14.2441,-14.601)">
        <path d="M45.325,92.994L45.268,92.994L40.777,80.603L35.425,80.603L35.425,76.326L33.6,76.925L33.6,80.603L31.034,80.603L31.034,82.201L33.6,82.201L33.6,91.425C33.6,94.144 34.779,95.503 37.136,95.503C37.848,95.51 38.552,95.349 39.189,95.033L39.189,93.422C38.706,93.752 38.135,93.93 37.55,93.935C36.93,93.998 36.316,93.753 35.91,93.279C35.534,92.632 35.364,91.886 35.425,91.14L35.425,82.201L39.36,82.193L44.355,95.204L46.095,95.204L51.912,80.603L49.959,80.603L45.325,92.994Z" style="fill:rgb(0,120,215);fill-rule:nonzero;"/>
    </g>
    <g transform="matrix(1,0,0,1,-14.2441,-14.601)">
        <path d="M58.791,80.261C57.587,80.249 56.406,80.594 55.398,81.252C54.365,81.931 53.54,82.884 53.017,84.004C52.438,85.216 52.145,86.546 52.161,87.889C52.041,89.91 52.654,91.908 53.886,93.514C55.067,94.883 56.815,95.633 58.62,95.546C60.428,95.6 62.206,95.075 63.696,94.049L63.696,92.253C62.387,93.346 60.739,93.956 59.033,93.978C57.657,94.047 56.322,93.488 55.405,92.46C54.462,91.258 53.983,89.757 54.057,88.232L64.609,88.232L64.609,87.319C64.717,85.467 64.178,83.634 63.083,82.136C62.029,80.87 60.436,80.174 58.791,80.261ZM54.1,86.635C54.223,85.325 54.766,84.089 55.647,83.113C56.456,82.273 57.583,81.812 58.748,81.844C59.855,81.788 60.927,82.252 61.642,83.099C62.397,84.119 62.779,85.367 62.727,86.635L54.1,86.635Z" style="fill:rgb(0,120,215);fill-rule:nonzero;"/>
    </g>
    <g transform="matrix(1,0,0,1,-14.2441,-14.601)">
        <path d="M74.125,80.561C73.669,80.396 73.185,80.318 72.7,80.333C71.828,80.328 70.984,80.64 70.325,81.21C69.571,81.881 69.024,82.754 68.75,83.726L68.693,83.726L68.693,80.603L66.882,80.603L66.882,95.204L68.693,95.204L68.693,88.06C68.68,86.983 68.846,85.911 69.185,84.888C69.431,84.063 69.891,83.317 70.518,82.728C71.056,82.252 71.752,81.992 72.471,82C73.059,81.975 73.639,82.14 74.125,82.471L74.125,80.561Z" style="fill:rgb(0,120,215);fill-rule:nonzero;"/>
    </g>
    <g transform="matrix(1,0,0,1,-14.2441,-14.601)">
        <path d="M86.327,82.286C85.039,80.904 83.202,80.162 81.316,80.261C79.328,80.159 77.39,80.921 76.005,82.35C74.643,83.919 73.945,85.958 74.058,88.032C73.958,90.034 74.644,91.997 75.969,93.5C78.827,96.234 83.401,96.208 86.228,93.443C87.555,91.906 88.242,89.917 88.146,87.889C88.265,85.86 87.616,83.858 86.327,82.286ZM84.923,92.409C83.979,93.477 82.596,94.055 81.174,93.978C79.717,94.043 78.308,93.438 77.352,92.338C76.367,91.115 75.864,89.572 75.941,88.004C75.844,86.372 76.349,84.761 77.359,83.476C78.326,82.379 79.741,81.778 81.202,81.844C82.625,81.758 84.01,82.335 84.951,83.405C85.908,84.707 86.373,86.306 86.263,87.918C86.37,89.527 85.894,91.122 84.923,92.409Z" style="fill:rgb(0,120,215);fill-rule:nonzero;"/>
    </g>
    <g transform="matrix(1,0,0,1,-14.2441,-14.601)">
        <path d="M59.681,14.601L44.781,14.601L24.391,68.447L40.688,68.447L59.681,14.601Z" style="fill:rgb(0,120,215);fill-rule:nonzero;"/>
    </g>
    <g transform="matrix(1,0,0,1,-14.2441,-14.601)">
        <path d="M63.774,68.447L80.07,68.447L59.681,14.601L53.454,38.967L63.774,68.447Z" style="fill:rgb(0,120,215);fill-rule:nonzero;"/>
    </g>
</svg>
