<svg width="460" height="104" viewBox="0 0 460 104" fill="none" xmlns="http://www.w3.org/2000/svg">
    <mask id="mask0" mask-type="alpha" maskUnits="userSpaceOnUse" x="0" y="0" width="460" height="104">
        <path fill-rule="evenodd" clip-rule="evenodd" d="M460 0H0V104H460V0ZM271 16.5L183.5 45V38.5L231.5 22.5L271 16.5Z" fill="black"/>
    </mask>
    <g mask="url(#mask0)">
        <path d="M49.0918 91L43.8672 76.498H19.3555L14.375 91H0.263672L28.7793 18.4902H34.3457L63.1055 91H49.0918ZM31.5625 40.3652L22.9688 66.7812H40.1562L31.5625 40.3652ZM103.682 91.0488V86.6543C101.956 88.1191 99.5801 89.3724 96.5527 90.4141C93.5254 91.4557 90.7422 91.9766 88.2031 91.9766C76.0612 91.9766 69.9902 85.5312 69.9902 72.6406V38.7051H82.1973V71.7129C82.1973 78.4186 85.2083 81.7715 91.2305 81.7715C93.9974 81.7715 96.569 81.0553 98.9453 79.623C101.322 78.1908 102.9 76.5306 103.682 74.6426V38.7051H115.889V91.0488H103.682ZM162.715 91V87.8262C161.706 88.9329 159.997 89.9095 157.588 90.7559C155.179 91.5697 152.689 91.9766 150.117 91.9766C142.826 91.9766 137.08 89.6654 132.881 85.043C128.714 80.4206 126.631 73.9753 126.631 65.707C126.631 57.4388 129.023 50.7168 133.809 45.541C138.626 40.3327 144.648 37.7285 151.875 37.7285C155.846 37.7285 159.46 38.5423 162.715 40.1699V19.2227L174.922 16.293V91H162.715ZM162.715 51.2051C160.111 49.1217 157.393 48.0801 154.561 48.0801C149.678 48.0801 145.918 49.5775 143.281 52.5723C140.645 55.5345 139.326 59.7988 139.326 65.3652C139.326 76.2376 144.567 81.6738 155.049 81.6738C156.221 81.6738 157.653 81.332 159.346 80.6484C161.071 79.9323 162.194 79.2161 162.715 78.5V51.2051ZM196.748 18.4414C198.701 18.4414 200.361 19.1413 201.729 20.541C203.128 21.9082 203.828 23.5684 203.828 25.5215C203.828 27.4746 203.128 29.151 201.729 30.5508C200.361 31.918 198.701 32.6016 196.748 32.6016C194.795 32.6016 193.118 31.918 191.719 30.5508C190.352 29.151 189.668 27.4746 189.668 25.5215C189.668 23.5684 190.352 21.9082 191.719 20.541C193.118 19.1413 194.795 18.4414 196.748 18.4414ZM190.449 91V48.7148H183.76V38.7051H202.803V91H190.449ZM218.916 48.5195H212.861V38.7051H218.916V28.0605L231.123 23.5684V38.7051H245.479V48.5195H231.123V71.4199C231.123 75.1634 231.709 77.8164 232.881 79.3789C234.053 80.9089 236.104 81.6738 239.033 81.6738C241.963 81.6738 244.697 80.8763 247.236 79.2812V90.5117C244.404 91.4883 240.368 91.9766 235.127 91.9766C229.919 91.9766 225.915 90.5117 223.115 87.582C220.316 84.6198 218.916 80.4206 218.916 74.9844V48.5195ZM258.809 19.2227L271.016 16.293V75.082C271.016 81.5273 272.936 85.3685 276.777 86.6055C274.889 90.1862 271.667 91.9766 267.109 91.9766C261.576 91.9766 258.809 88.1354 258.809 80.4531V19.2227ZM332.881 68.5879H295.527C295.755 72.7546 297.188 75.9935 299.824 78.3047C302.461 80.6159 306.009 81.7715 310.469 81.7715C316.035 81.7715 320.267 80.3229 323.164 77.4258L327.9 86.752C323.604 90.235 317.191 91.9766 308.662 91.9766C300.687 91.9766 294.372 89.6491 289.717 84.9941C285.094 80.3066 282.783 73.7799 282.783 65.4141C282.783 57.1784 285.322 50.5052 290.4 45.3945C295.511 40.2839 301.631 37.7285 308.76 37.7285C316.344 37.7285 322.432 39.9909 327.021 44.5156C331.611 49.0404 333.906 54.8021 333.906 61.8008C333.906 63.2982 333.564 65.5605 332.881 68.5879ZM295.967 59.4082H321.65C320.804 51.7585 316.572 47.9336 308.955 47.9336C301.989 47.9336 297.66 51.7585 295.967 59.4082ZM340.498 87.6309L344.844 77.9141C348.49 80.8112 352.607 82.2598 357.197 82.2598C361.95 82.2598 364.326 80.5671 364.326 77.1816C364.326 75.196 363.61 73.5684 362.178 72.2988C360.745 71.0293 357.962 69.5319 353.828 67.8066C344.811 64.0632 340.303 58.8223 340.303 52.084C340.303 47.5592 342.028 44.0436 345.479 41.5371C348.929 38.998 353.34 37.7285 358.711 37.7285C364.147 37.7285 369.258 38.9492 374.043 41.3906L370.527 50.8633C367.858 48.5846 364.147 47.4453 359.395 47.4453C355.13 47.4453 352.998 49.138 352.998 52.5234C352.998 53.8581 353.698 55.0625 355.098 56.1367C356.497 57.2109 359.492 58.6595 364.082 60.4824C368.672 62.2728 371.976 64.4538 373.994 67.0254C376.012 69.597 377.021 72.7057 377.021 76.3516C377.021 81.2018 375.215 85.0267 371.602 87.8262C368.021 90.5931 363.138 91.9766 356.953 91.9766C353.47 91.9766 350.671 91.6836 348.555 91.0977C346.471 90.5443 343.786 89.3887 340.498 87.6309ZM383.564 87.6309L387.91 77.9141C391.556 80.8112 395.674 82.2598 400.264 82.2598C405.016 82.2598 407.393 80.5671 407.393 77.1816C407.393 75.196 406.676 73.5684 405.244 72.2988C403.812 71.0293 401.029 69.5319 396.895 67.8066C387.878 64.0632 383.369 58.8223 383.369 52.084C383.369 47.5592 385.094 44.0436 388.545 41.5371C391.995 38.998 396.406 37.7285 401.777 37.7285C407.214 37.7285 412.324 38.9492 417.109 41.3906L413.594 50.8633C410.924 48.5846 407.214 47.4453 402.461 47.4453C398.197 47.4453 396.064 49.138 396.064 52.5234C396.064 53.8581 396.764 55.0625 398.164 56.1367C399.564 57.2109 402.559 58.6595 407.148 60.4824C411.738 62.2728 415.042 64.4538 417.061 67.0254C419.079 69.597 420.088 72.7057 420.088 76.3516C420.088 81.2018 418.281 85.0267 414.668 87.8262C411.087 90.5931 406.204 91.9766 400.02 91.9766C396.536 91.9766 393.737 91.6836 391.621 91.0977C389.538 90.5443 386.852 89.3887 383.564 87.6309ZM431.758 84.6035C431.758 82.1621 432.604 80.0951 434.297 78.4023C436.022 76.6771 438.105 75.8145 440.547 75.8145C442.988 75.8145 445.055 76.6771 446.748 78.4023C448.473 80.0951 449.336 82.1621 449.336 84.6035C449.336 87.0449 448.473 89.1283 446.748 90.8535C445.055 92.5788 442.988 93.4414 440.547 93.4414C438.105 93.4414 436.022 92.5788 434.297 90.8535C432.604 89.1283 431.758 87.0449 431.758 84.6035Z" fill="#020202"/>
    </g>
</svg>
