<svg width="450" height="78" viewBox="0 0 450 78" fill="none" xmlns="http://www.w3.org/2000/svg">
    <path fill-rule="evenodd" clip-rule="evenodd" d="M43.8672 60.498L49.0918 75H63.1055L34.3457 2.49023H28.7793L0.263672 75H14.375L19.3555 60.498H43.8672ZM22.9688 50.7812L31.5625 24.3652L40.1562 50.7812H22.9688ZM103.682 70.6543V75.0488H115.889V22.7051H103.682V58.6426C102.9 60.5306 101.322 62.1908 98.9453 63.623C96.569 65.0553 93.9974 65.7715 91.2305 65.7715C85.2083 65.7715 82.1973 62.4186 82.1973 55.7129V22.7051H69.9902V56.6406C69.9902 69.5312 76.0612 75.9766 88.2031 75.9766C90.7422 75.9766 93.5254 75.4557 96.5527 74.4141C99.5801 73.3724 101.956 72.1191 103.682 70.6543ZM162.715 71.8262V75H174.922V0.292969L162.715 3.22266V24.1699C159.46 22.5423 155.846 21.7285 151.875 21.7285C144.648 21.7285 138.626 24.3327 133.809 29.541C129.023 34.7168 126.631 41.4388 126.631 49.707C126.631 57.9753 128.714 64.4206 132.881 69.043C137.08 73.6654 142.826 75.9766 150.117 75.9766C152.689 75.9766 155.179 75.5697 157.588 74.7559C159.997 73.9095 161.706 72.9329 162.715 71.8262ZM154.561 32.0801C157.393 32.0801 160.111 33.1217 162.715 35.2051V62.5C162.194 63.2161 161.071 63.9323 159.346 64.6484C157.653 65.332 156.221 65.6738 155.049 65.6738C144.567 65.6738 139.326 60.2376 139.326 49.3652C139.326 43.7988 140.645 39.5345 143.281 36.5723C145.918 33.5775 149.678 32.0801 154.561 32.0801ZM201.729 4.54102C200.361 3.14128 198.701 2.44141 196.748 2.44141C194.795 2.44141 193.118 3.14128 191.719 4.54102C190.352 5.9082 189.668 7.56836 189.668 9.52148C189.668 11.4746 190.352 13.151 191.719 14.5508C193.118 15.918 194.795 16.6016 196.748 16.6016C198.701 16.6016 200.361 15.918 201.729 14.5508C203.128 13.151 203.828 11.4746 203.828 9.52148C203.828 7.56836 203.128 5.9082 201.729 4.54102ZM190.449 32.7148V75H202.803V22.7128L183.76 28.9154V32.7148H190.449ZM258.809 4.47092L271 0.5L268.693 0.850485L271.016 0.292969V59.082C271.016 65.5273 272.936 69.3685 276.777 70.6055C274.889 74.1862 271.667 75.9766 267.109 75.9766C261.576 75.9766 258.809 72.1354 258.809 64.4531V4.47092ZM218.916 17.4645L231.123 13.4885V22.7051H245.479V32.5195H231.123V55.4199C231.123 59.1634 231.709 61.8164 232.881 63.3789C234.053 64.9089 236.104 65.6738 239.033 65.6738C241.963 65.6738 244.697 64.8763 247.236 63.2812V74.5117C244.404 75.4883 240.368 75.9766 235.127 75.9766C229.919 75.9766 225.915 74.5117 223.115 71.582C220.316 68.6198 218.916 64.4206 218.916 58.9844V32.5195H212.861V22.7051H218.916V17.4645ZM295.527 52.5879H332.881C333.564 49.5605 333.906 47.2982 333.906 45.8008C333.906 38.8021 331.611 33.0404 327.021 28.5156C322.432 23.9909 316.344 21.7285 308.76 21.7285C301.631 21.7285 295.511 24.2839 290.4 29.3945C285.322 34.5052 282.783 41.1784 282.783 49.4141C282.783 57.7799 285.094 64.3066 289.717 68.9941C294.372 73.6491 300.687 75.9766 308.662 75.9766C317.191 75.9766 323.604 74.235 327.9 70.752L323.164 61.4258C320.267 64.3229 316.035 65.7715 310.469 65.7715C306.009 65.7715 302.461 64.6159 299.824 62.3047C297.188 59.9935 295.755 56.7546 295.527 52.5879ZM321.65 43.4082H295.967C297.66 35.7585 301.989 31.9336 308.955 31.9336C316.572 31.9336 320.804 35.7585 321.65 43.4082ZM344.844 61.9141L340.498 71.6309C343.786 73.3887 346.471 74.5443 348.555 75.0977C350.671 75.6836 353.47 75.9766 356.953 75.9766C363.138 75.9766 368.021 74.5931 371.602 71.8262C375.215 69.0267 377.021 65.2018 377.021 60.3516C377.021 56.7057 376.012 53.597 373.994 51.0254C371.976 48.4538 368.672 46.2728 364.082 44.4824C359.492 42.6595 356.497 41.2109 355.098 40.1367C353.698 39.0625 352.998 37.8581 352.998 36.5234C352.998 33.138 355.13 31.4453 359.395 31.4453C364.147 31.4453 367.858 32.5846 370.527 34.8633L374.043 25.3906C369.258 22.9492 364.147 21.7285 358.711 21.7285C353.34 21.7285 348.929 22.998 345.479 25.5371C342.028 28.0436 340.303 31.5592 340.303 36.084C340.303 42.8223 344.811 48.0632 353.828 51.8066C357.962 53.5319 360.745 55.0293 362.178 56.2988C363.61 57.5684 364.326 59.196 364.326 61.1816C364.326 64.5671 361.95 66.2598 357.197 66.2598C352.607 66.2598 348.49 64.8112 344.844 61.9141ZM387.91 61.9141L383.564 71.6309C386.852 73.3887 389.538 74.5443 391.621 75.0977C393.737 75.6836 396.536 75.9766 400.02 75.9766C406.204 75.9766 411.087 74.5931 414.668 71.8262C418.281 69.0267 420.088 65.2018 420.088 60.3516C420.088 56.7057 419.079 53.597 417.061 51.0254C415.042 48.4538 411.738 46.2728 407.148 44.4824C402.559 42.6595 399.564 41.2109 398.164 40.1367C396.764 39.0625 396.064 37.8581 396.064 36.5234C396.064 33.138 398.197 31.4453 402.461 31.4453C407.214 31.4453 410.924 32.5846 413.594 34.8633L417.109 25.3906C412.324 22.9492 407.214 21.7285 401.777 21.7285C396.406 21.7285 391.995 22.998 388.545 25.5371C385.094 28.0436 383.369 31.5592 383.369 36.084C383.369 42.8223 387.878 48.0632 396.895 51.8066C401.029 53.5319 403.812 55.0293 405.244 56.2988C406.676 57.5684 407.393 59.196 407.393 61.1816C407.393 64.5671 405.016 66.2598 400.264 66.2598C395.674 66.2598 391.556 64.8112 387.91 61.9141ZM434.297 62.4023C432.604 64.0951 431.758 66.1621 431.758 68.6035C431.758 71.0449 432.604 73.1283 434.297 74.8535C436.022 76.5788 438.105 77.4414 440.547 77.4414C442.988 77.4414 445.055 76.5788 446.748 74.8535C448.473 73.1283 449.336 71.0449 449.336 68.6035C449.336 66.1621 448.473 64.0951 446.748 62.4023C445.055 60.6771 442.988 59.8145 440.547 59.8145C438.105 59.8145 436.022 60.6771 434.297 62.4023Z" fill="#020202"/>
</svg>
