<svg width="407" height="400" xmlns="http://www.w3.org/2000/svg"><g fill="none" fill-rule="evenodd"><path d="M316.621 31H97.147C47.36 31 7 71.36 7 121.147v5.25c0 49.786 40.36 90.146 90.147 90.146H406.77v-95.396C406.769 71.36 366.409 31 316.62 31z" fill="#4CB877"/><g transform="matrix(-1 0 0 1 286.838 229.796)"><path d="M196.07.352H72.645C36.047.352 6.379 30.021 6.379 66.618c0 36.597 29.668 66.265 66.266 66.265h213.572V90.5c0-49.787-40.36-90.148-90.147-90.148z" fill="#838990"/><ellipse fill="#FFF" cx="86.829" cy="66.848" rx="16.657" ry="16.566"/><ellipse fill="#FFF" cx="145.306" cy="66.848" rx="16.657" ry="16.566"/><ellipse fill="#FFF" cx="203.783" cy="66.848" rx="16.657" ry="16.566"/></g><path d="M116.332 119.789c4.083 1.396 7.065 3.553 8.947 6.471 1.882 2.919 2.823 6.376 2.823 10.374 0 4.377-1.037 8.089-3.11 11.134-2.073 3.046-4.992 5.33-8.756 6.852-3.763 1.523-8.165 2.284-13.205 2.284H75.664v-70.33h24.497c5.294 0 9.824.715 13.588 2.142 3.763 1.428 6.618 3.506 8.564 6.234 1.945 2.728 2.918 5.995 2.918 9.802 0 7.233-2.966 12.245-8.899 15.037zm-25.74-19.986v15.132h8.516c3.509 0 6.172-.603 7.99-1.808 1.818-1.206 2.727-3.14 2.727-5.805 0-2.538-.893-4.426-2.68-5.663-1.785-1.237-4.305-1.856-7.559-1.856h-8.994zm11.865 43.873c3.19 0 5.694-.698 7.512-2.094 1.818-1.396 2.727-3.426 2.727-6.09 0-2.729-.925-4.775-2.775-6.139-1.85-1.364-4.497-2.046-7.942-2.046H90.592v16.369h11.865zm85.355-10.944c0 1.269-.032 2.22-.096 2.855h-36.075c1.34 6.725 5.71 10.088 13.11 10.088 2.424 0 4.689-.397 6.794-1.19 2.105-.793 4.178-2.046 6.22-3.76l6.985 9.898c-2.807 2.602-5.98 4.537-9.521 5.806-3.54 1.269-7.512 1.903-11.913 1.903-5.295 0-9.968-1.079-14.019-3.236-4.05-2.157-7.193-5.234-9.425-9.231-2.233-3.997-3.35-8.692-3.35-14.085 0-5.647 1.213-10.516 3.637-14.608 2.424-4.093 5.645-7.186 9.664-9.28 4.02-2.093 8.357-3.14 13.014-3.14 4.912 0 9.234 1.047 12.966 3.14 3.732 2.094 6.666 5.235 8.803 9.422 2.138 4.188 3.206 9.327 3.206 15.418zm-25.166-16.274c-2.743 0-5.072.872-6.986 2.617-1.913 1.745-3.221 4.14-3.923 7.185h21.147c-.446-3.045-1.53-5.44-3.253-7.185-1.722-1.745-4.05-2.617-6.985-2.617zm69.757 41.97c-6.06 0-11.881-1.413-17.463-4.236-5.582-2.823-10.143-6.995-13.684-12.515-3.54-5.52-5.31-12.118-5.31-19.795 0-7.867 1.77-14.592 5.31-20.175 3.54-5.584 8.102-9.755 13.684-12.515 5.582-2.76 11.403-4.14 17.463-4.14 6.06 0 11.93 1.396 17.607 4.188 5.678 2.791 10.319 6.963 13.923 12.514 3.604 5.552 5.406 12.261 5.406 20.128 0 7.677-1.786 14.276-5.358 19.795-3.573 5.52-8.198 9.692-13.875 12.515-5.678 2.823-11.579 4.235-17.703 4.235zm0-14.657c3.573 0 6.986-.825 10.239-2.474 3.253-1.65 5.9-4.124 7.942-7.423 2.042-3.3 3.062-7.297 3.062-11.992 0-4.885-1.02-9.009-3.062-12.371-2.041-3.363-4.673-5.853-7.894-7.471-3.222-1.618-6.65-2.427-10.287-2.427-3.636 0-7.017.809-10.143 2.427-3.126 1.618-5.661 4.092-7.607 7.423-1.946 3.33-2.919 7.47-2.919 12.42 0 4.694.973 8.691 2.919 11.99 1.946 3.3 4.497 5.774 7.655 7.424a21.491 21.491 0 0 0 10.095 2.474zm79.518-38.924c4.976 0 9.25 1.174 12.822 3.521 3.573 2.348 6.3 5.552 8.182 9.613 1.882 4.06 2.823 8.565 2.823 13.513 0 4.95-1.021 9.47-3.062 13.562-2.042 4.092-4.88 7.328-8.517 9.707-3.636 2.38-7.782 3.569-12.44 3.569-3.508 0-6.618-.698-9.329-2.094-2.711-1.396-4.992-3.362-6.842-5.9v26.171h-14.64v-70.14h13.875l.574 7.139c1.85-2.729 4.178-4.854 6.985-6.377 2.807-1.522 5.997-2.284 9.57-2.284zm-3.828 40.732c2.425 0 4.594-.555 6.507-1.665 1.914-1.11 3.43-2.712 4.546-4.806s1.674-4.6 1.674-7.518c0-2.982-.526-5.52-1.579-7.614-1.052-2.094-2.488-3.68-4.306-4.758-1.818-1.079-3.907-1.618-6.267-1.618-2.36 0-4.546.54-6.555 1.618-2.01 1.078-3.604 2.68-4.785 4.806-1.18 2.125-1.77 4.647-1.77 7.566 0 2.982.542 5.52 1.627 7.613 1.084 2.094 2.568 3.68 4.45 4.759 1.881 1.078 4.034 1.617 6.458 1.617z" fill="#FFF"/></g></svg>