<?xml version="1.0" encoding="UTF-8"?>
<svg width="369px" height="369px" viewBox="0 0 369 369" version="1.1" xmlns="http://www.w3.org/2000/svg" xmlns:xlink="http://www.w3.org/1999/xlink">
    <!-- Generator: Sketch 46.2 (44496) - http://www.bohemiancoding.com/sketch -->
    <title>BeBubble</title>
    <desc>Created with Sketch.</desc>
    <defs></defs>
    <g id="Page-1" stroke="none" stroke-width="1" fill="none" fill-rule="evenodd">
        <g id="Be">
            <g id="BeBubble">
                <path d="M81.4879763,337.632599 C110.868633,357.439271 146.259266,369 184.347826,369 C286.160319,369 368.695652,286.396536 368.695652,184.5 C368.695652,82.6034637 286.160319,0 184.347826,0 C82.5353331,0 0,82.6034637 0,184.5 C0,222.620001 11.5511936,258.039848 31.3415293,287.444758 L0,369 L81.4879763,337.632599 Z" id="Bubble" fill="#FFBB55"></path>
                <path d="M143.445652,262.9125 L69.0764266,262.9125 L69.0764266,97.1665466 L142.183212,97.1665466 C173.285156,97.1665466 192.795601,113.132373 192.795601,138.516888 C192.795601,156.665094 179.253057,171.826886 161.693657,174.468713 L161.693657,175.38761 C184.188052,177.110541 200.714547,193.535815 200.714547,215.474469 C200.714547,244.649432 178.793988,262.9125 143.445652,262.9125 Z M103.736158,123.01051 L103.736158,166.083783 L129.673573,166.083783 C148.151112,166.083783 158.709706,157.928577 158.709706,143.915405 C158.709706,130.591406 149.413553,123.01051 133.23136,123.01051 L103.736158,123.01051 Z M103.736158,237.068536 L134.608568,237.068536 C154.578083,237.068536 165.366211,228.568744 165.366211,212.71778 C165.366211,197.211401 154.233781,188.941333 133.805197,188.941333 L103.736158,188.941333 L103.736158,237.068536 Z M274.395168,159.306921 C259.131114,159.306921 247.883916,170.448541 246.736243,186.644092 L301.250722,186.644092 C300.676885,170.103955 289.888757,159.306921 274.395168,159.306921 Z M301.709791,224.318848 L332.582201,224.318848 C328.909647,248.784467 306.070949,265.094879 275.313307,265.094879 C236.866253,265.094879 213.338952,240.399536 213.338952,200.197815 C213.338952,159.996094 236.981021,134.266992 274.050866,134.266992 C310.432108,134.266992 333.615107,158.617749 333.615107,197.096539 L333.615107,207.434125 L246.391941,207.434125 L246.391941,209.501642 C246.391941,227.764709 258.212976,240.05495 275.887143,240.05495 C288.511549,240.05495 298.496306,234.082123 301.709791,224.318848 Z" id="Be" fill="#FFFFFF"></path>
            </g>
        </g>
    </g>
</svg>