<svg id="Warstwa_1" data-name="Warstwa 1" xmlns="http://www.w3.org/2000/svg" viewBox="0 0 353.02 83.23"><defs><style>.cls-1{fill:#0a0203;}.cls-2{fill:#d23750;}</style></defs><title>codeheroes_logo_final</title><g id="LOGO"><path class="cls-1" d="M37.08,32.58a61.9,61.9,0,0,0-9.14-.91c-2.25,0-3.78.42-4.59,1.25q-2.05,2.22-2.06,9.46T24,51.73a4.43,4.43,0,0,0,2.78.85,22.89,22.89,0,0,0,8.12-2l1.66-.69,2.34,6.26a16.51,16.51,0,0,1-1.45,1,22.63,22.63,0,0,1-4,1.54,20.66,20.66,0,0,1-6.23,1q-6.83,0-10.81-4.29T12.4,42q0-10,4.89-13.86,4.34-3.48,11.34-3.47A35.83,35.83,0,0,1,38,25.93Z"/><path class="cls-1" d="M43.67,29.14q3.3-4.45,11.09-4.46t11,4.43Q69,33.55,69,42.13t-3.25,13q-3.26,4.44-11,4.43T43.67,55.11q-3.31-4.45-3.31-13C40.36,36.44,41.46,32.12,43.67,29.14Zm16.59,13q0-6.48-1.14-8.61c-.76-1.43-2.22-2.13-4.39-2.13s-3.64.72-4.42,2.15-1.17,4.3-1.17,8.59.39,7.14,1.17,8.58,2.25,2.16,4.42,2.16,3.63-.71,4.39-2.13S60.26,46.44,60.26,42.13Z"/><path class="cls-1" d="M100.28,15.59V58.83H94.73l-.89-3.23H93.5q-5.77,4-10.42,4T75.3,55.25q-3.15-4.32-3.14-12.9a28.4,28.4,0,0,1,1.19-8.81A12.69,12.69,0,0,1,76.6,28a12.54,12.54,0,0,1,8.73-3.35,26.47,26.47,0,0,1,6.34.85V15.59ZM91.67,33A16.27,16.27,0,0,0,86,31.78c-1.67,0-2.78.31-3.34.91q-1.6,1.77-1.61,9.61t1.56,9.15a3.24,3.24,0,0,0,2.11.68,18.82,18.82,0,0,0,7-1.88Z"/><path class="cls-1" d="M120,59.57q-15.12,0-15.12-17.44t15-17.45q6.72,0,10.12,3.66t3.39,12.14v4.71H113.79c0,3.19.58,5.29,1.72,6.31a4.67,4.67,0,0,0,3.28,1.08,35.35,35.35,0,0,0,9.9-1.82l1.94-.62,2.12,6.36a34,34,0,0,1-6.23,2.14A27.5,27.5,0,0,1,120,59.57Zm3.62-26.71c-.67-.83-2-1.25-4-1.25s-3.43.5-4.28,1.48S114,36,113.85,38.83l10.73-.23Q124.46,34.11,123.58,32.86Z"/><path class="cls-1" d="M137.64,58.83V15.59h8.61V27.52a23.16,23.16,0,0,1,10.29-2.95q4.5,0,6.34,3.26T164.71,37V58.83h-8.62V38.49c0-2.8-.26-4.55-.77-5.23a2.42,2.42,0,0,0-2-1q-2.16,0-7.06,2V58.83Z"/><path class="cls-1" d="M183.94,59.57q-15.12,0-15.12-17.44t15-17.45q6.73,0,10.12,3.66t3.39,12.14v4.71H177.77q0,4.79,1.73,6.31a4.63,4.63,0,0,0,3.28,1.08,35.35,35.35,0,0,0,9.89-1.82l2-.62,2.11,6.36a34,34,0,0,1-6.23,2.14A27.5,27.5,0,0,1,183.94,59.57Zm3.62-26.71c-.67-.83-2-1.25-4-1.25s-3.42.5-4.28,1.48-1.33,2.9-1.44,5.74l10.73-.23Q188.44,34.11,187.56,32.86Z"/><path class="cls-1" d="M210.15,27.78a23,23,0,0,1,3.28-1.91,10,10,0,0,1,4.45-1.19,7.45,7.45,0,0,1,3.31.62l-.67,7.62a29.11,29.11,0,0,0-3.06-.17,12.77,12.77,0,0,0-7,2v24H201.9V25.42h5.33l1.12,3.52h.33C209.05,28.64,209.54,28.25,210.15,27.78Z"/><path class="cls-1" d="M225.16,29.14q3.32-4.45,11.09-4.46t11,4.43q3.26,4.44,3.25,13t-3.25,13q-3.25,4.44-11,4.43t-11.09-4.46q-3.3-4.45-3.31-13C221.85,36.44,223,32.12,225.16,29.14Zm16.59,13q0-6.48-1.13-8.61c-.76-1.43-2.23-2.13-4.4-2.13s-3.64.72-4.42,2.15-1.16,4.3-1.16,8.59.39,7.14,1.16,8.58,2.26,2.16,4.42,2.16,3.64-.71,4.4-2.13S241.75,46.44,241.75,42.13Z"/><path class="cls-1" d="M268.77,59.57q-15.12,0-15.12-17.44t15-17.45q6.72,0,10.12,3.66t3.39,12.14v4.71H262.6c0,3.19.58,5.29,1.72,6.31a4.65,4.65,0,0,0,3.28,1.08,35.35,35.35,0,0,0,9.9-1.82l1.94-.62,2.12,6.36a34,34,0,0,1-6.23,2.14A27.5,27.5,0,0,1,268.77,59.57Zm3.61-26.71c-.66-.83-2-1.25-4-1.25s-3.43.5-4.28,1.48-1.33,2.9-1.44,5.74l10.73-.23C273.31,35.61,273,33.7,272.38,32.86Z"/><path class="cls-1" d="M296.73,31.73a4.67,4.67,0,0,0-2.75.54,2,2,0,0,0-.64,1.62,2.47,2.47,0,0,0,1,1.9A6.25,6.25,0,0,0,296.18,37c.62.25,1.36.5,2.19.74l3.73,1.11A20.42,20.42,0,0,1,306,40.36q4.29,2.45,4.28,7.82t-3.22,8.38q-3.22,3-9.06,3a26.55,26.55,0,0,1-6.39-.82,34,34,0,0,1-5.17-1.62l-1.78-.85,2.11-6.94q7.07,3.07,11.56,3.07a4.33,4.33,0,0,0,2.56-.62,2.69,2.69,0,0,0,.84-2.28A2.52,2.52,0,0,0,301.4,48c-.22-.31-.41-.54-.55-.71a2.83,2.83,0,0,0-.67-.52q-.45-.26-.75-.39c-.21-.1-.51-.22-.92-.37l-.94-.34c-.23-.08-.6-.19-1.12-.34l-1.75-.54-1.47-.49c-.33-.11-1-.36-2-.74a9.42,9.42,0,0,1-2.06-1c-.39-.28-.93-.7-1.61-1.25a5.13,5.13,0,0,1-1.47-1.73,11.75,11.75,0,0,1-1.17-5,9.16,9.16,0,0,1,3.05-7.3q3.06-2.64,9.15-2.64a36.2,36.2,0,0,1,11.76,1.93l-1.28,6.82A43.29,43.29,0,0,0,296.73,31.73Z"/><path class="cls-2" d="M310.18,68.27V62.7h31.24v5.57Z"/></g></svg>