<svg id="Layer_1" data-name="Layer 1" xmlns="http://www.w3.org/2000/svg" viewBox="0 0 372.22 314.54"><defs><style>.cls-1{fill:#929497;}.cls-2{fill:#77787b;}.cls-3{fill:#aacf37;}</style></defs><title>greenlabs-type2</title><path class="cls-1" d="M37.81,304.6a4.7,4.7,0,0,0-3.6-1.54c-2.39,0-4.19,1.72-4.19,4.76s1.39,4.86,4.2,4.86a2.34,2.34,0,0,0,1.84-.6v-2.86H33.3v-1.7h4.8v5.67A7.77,7.77,0,0,1,34,314.34c-4,0-6.06-2.57-6.06-6.51s2.62-6.42,6.15-6.42a6.44,6.44,0,0,1,4,1.17v1.91A.14.14,0,0,1,37.81,304.6Z" transform="translate(0.5 0.2)"/><path class="cls-1" d="M50.8,308.89v.05l3.1,5.25H51.39l-2.48-4.9H47.19v4.9h-2V301.56h3.63c2.92,0,4.52,1.55,4.52,3.71A3.51,3.51,0,0,1,50.8,308.89Zm.42-3.56A2,2,0,0,0,49,303.27H47.18v4.39h1.43C50.4,307.66,51.22,307.15,51.22,305.33Z" transform="translate(0.5 0.2)"/><path class="cls-1" d="M68.05,314.19h-8V301.56h8v1.71h-6v3.2h5.55v1.72H62.09v4.29h6Z" transform="translate(0.5 0.2)"/><path class="cls-1" d="M82.75,314.19h-8V301.56h8v1.71h-6v3.2h5.56v1.72H76.78v4.29h6Z" transform="translate(0.5 0.2)"/><path class="cls-1" d="M96.15,310.39l.47,1.4,0-1.4v-8.83h2v12.63H95.83l-4-8.82L91.35,304l0,1.41v8.82h-2V301.56h2.71Z" transform="translate(0.5 0.2)"/><path class="cls-1" d="M119.41,314.19h-2V303.27h-4v-1.71h10.1v1.71h-4Z" transform="translate(0.5 0.2)"/><path class="cls-1" d="M137.71,314.19h-8V301.56h8v1.71h-6v3.2h5.55v1.72h-5.55v4.29h6Z" transform="translate(0.5 0.2)"/><path class="cls-1" d="M152.75,310.77c.07-.11.22,0,.22.11V313a6.07,6.07,0,0,1-4.07,1.38c-3.57,0-5.69-2.48-5.69-6.46s2.52-6.47,5.89-6.47a5.17,5.17,0,0,1,3.76,1.19v2.07c0,.13-.14.21-.21.11a4.35,4.35,0,0,0-3.43-1.65c-2.23,0-3.88,1.6-3.88,4.69s1.33,4.78,3.8,4.78A4.83,4.83,0,0,0,152.75,310.77Z" transform="translate(0.5 0.2)"/><path class="cls-1" d="M168.65,301.56v12.63h-2.06v-6.06h-5.12v6.06h-2.06V301.56h2.06v4.86h5.12v-4.86Z" transform="translate(0.5 0.2)"/><path class="cls-1" d="M193.45,310.77c.08-.11.23,0,.23.11V313a6.09,6.09,0,0,1-4.07,1.38c-3.57,0-5.7-2.48-5.7-6.46s2.52-6.47,5.9-6.47a5.18,5.18,0,0,1,3.76,1.19v2.07c0,.13-.15.21-.22.11a4.35,4.35,0,0,0-3.44-1.65c-2.2,0-3.86,1.6-3.86,4.69s1.33,4.78,3.79,4.78A4.81,4.81,0,0,0,193.45,310.77Z" transform="translate(0.5 0.2)"/><path class="cls-1" d="M204.55,314.34c-3.5,0-5.52-2.81-5.52-6.44s2-6.49,5.52-6.49,5.55,2.88,5.55,6.49S208.06,314.34,204.55,314.34Zm0-1.72c2.26,0,3.44-1.94,3.44-4.74s-1.18-4.74-3.44-4.74-3.39,1.95-3.39,4.74S202.31,312.62,204.55,312.62Z" transform="translate(0.5 0.2)"/><path class="cls-1" d="M222.59,308.89v.05l3.11,5.25h-2.52l-2.47-4.9H219v4.9h-2.07V301.56h3.65c2.91,0,4.53,1.55,4.53,3.71A3.53,3.53,0,0,1,222.59,308.89Zm.43-3.56a2,2,0,0,0-2.19-2.06H219v4.39h1.42C222.19,307.66,223,307.15,223,305.33Z" transform="translate(0.5 0.2)"/><path class="cls-1" d="M239.86,305.38c0,2.56-1.75,4.22-4.43,4.22h-1.58v4.59h-2.06V301.56h3.58C238.25,301.56,239.86,303.18,239.86,305.38Zm-2.05.09c0-1.34-.78-2.23-2.74-2.23h-1.25v4.67h1.09C236.74,307.91,237.81,307,237.81,305.47Z" transform="translate(0.5 0.2)"/><path class="cls-1" d="M251.22,314.34c-3.49,0-5.52-2.81-5.52-6.44s2-6.49,5.52-6.49,5.57,2.88,5.57,6.49S254.74,314.34,251.22,314.34Zm0-1.72c2.26,0,3.44-1.94,3.44-4.74s-1.18-4.74-3.44-4.74-3.4,1.95-3.4,4.74S249,312.62,251.22,312.62Z" transform="translate(0.5 0.2)"/><path class="cls-1" d="M269.26,308.89v.05l3.11,5.25h-2.52l-2.46-4.9h-1.73v4.9h-2.05V301.56h3.65c2.91,0,4.52,1.55,4.52,3.71A3.52,3.52,0,0,1,269.26,308.89Zm.43-3.56a2,2,0,0,0-2.18-2.06h-1.86v4.39h1.43C268.86,307.66,269.69,307.15,269.69,305.33Z" transform="translate(0.5 0.2)"/><path class="cls-1" d="M283.59,301.56l4.22,12.63h-2.06l-1.12-3.46h-4.28l-1.14,3.46h-2.06l4.2-12.63Zm-1.11,1.85-.33,1.21-1.41,4.47h3.48l-1.41-4.47Z" transform="translate(0.5 0.2)"/><path class="cls-1" d="M297.69,314.19h-2.05V303.27h-4v-1.71h10.11v1.71h-4Z" transform="translate(0.5 0.2)"/><path class="cls-1" d="M309.84,301.56v12.63h-2.06V301.56Z" transform="translate(0.5 0.2)"/><path class="cls-1" d="M321.8,314.34c-3.51,0-5.53-2.81-5.53-6.44s2-6.49,5.53-6.49,5.55,2.88,5.55,6.49S325.32,314.34,321.8,314.34Zm0-1.72c2.25,0,3.43-1.94,3.43-4.74s-1.18-4.74-3.43-4.74-3.4,1.95-3.4,4.74S319.55,312.62,321.8,312.62Z" transform="translate(0.5 0.2)"/><path class="cls-1" d="M340.92,310.39l.46,1.4,0-1.4v-8.83h1.95v12.63h-2.71l-4-8.82L336.1,304l0,1.41v8.82h-1.95V301.56h2.71Z" transform="translate(0.5 0.2)"/><path class="cls-2" d="M77.26,276.92a2.58,2.58,0,0,1-2.08-1L59.91,255.86a2.69,2.69,0,0,1-.26-2.76A2.59,2.59,0,0,1,62,251.66c10.58,0,12.64-2.84,12.64-7.74a6.7,6.7,0,0,0-5.87-7.09H56.44V274.3a2.62,2.62,0,1,1-5.24,0V234.21a2.59,2.59,0,0,1,2.61-2.6H69.19a11.87,11.87,0,0,1,10.69,12.3c0,9.57-7.1,12.08-12.79,12.73l12.25,16.08a2.62,2.62,0,0,1-.49,3.66A2.73,2.73,0,0,1,77.26,276.92Z" transform="translate(0.5 0.2)"/><path class="cls-2" d="M114.91,277.48H90.21a2.6,2.6,0,0,1-2.6-2.61V233.1a2.61,2.61,0,0,1,2.6-2.61h25.25a2.62,2.62,0,1,1,0,5.24H92.85v36.52h22.06a2.62,2.62,0,1,1,0,5.23Z" transform="translate(0.5 0.2)"/><path class="cls-2" d="M112,256.61H90.21a2.62,2.62,0,0,1,0-5.24H112a2.62,2.62,0,1,1,0,5.24Z" transform="translate(0.5 0.2)"/><path class="cls-2" d="M153.5,277.48H128.8a2.61,2.61,0,0,1-2.61-2.61V233.1a2.62,2.62,0,0,1,2.61-2.61h25.26a2.62,2.62,0,1,1,0,5.24H131.43v36.52H153.5a2.62,2.62,0,1,1,0,5.23Z" transform="translate(0.5 0.2)"/><path class="cls-2" d="M150.59,256.61H128.8a2.62,2.62,0,0,1,0-5.24h21.79a2.62,2.62,0,0,1,0,5.24Z" transform="translate(0.5 0.2)"/><path class="cls-2" d="M168.3,277.48a2.61,2.61,0,0,1-2.61-2.61V235a2.6,2.6,0,0,1,4.77-1.46L191.56,265V234.21a2.62,2.62,0,0,1,5.24,0v39.44a2.61,2.61,0,0,1-1.86,2.5,2.59,2.59,0,0,1-2.93-1.06l-21.09-31.51v31.29A2.62,2.62,0,0,1,168.3,277.48Z" transform="translate(0.5 0.2)"/><path class="cls-2" d="M253.66,277H231.13a2.62,2.62,0,0,1-2.63-2.61v-41a2.62,2.62,0,1,1,5.23,0v38.41h19.93a2.62,2.62,0,1,1,0,5.24Z" transform="translate(0.5 0.2)"/><path class="cls-2" d="M321.91,277h-16a2.61,2.61,0,0,1-2.61-2.61v-40a2.62,2.62,0,1,1,5.24,0v15.5h7.65c5.58,0,18.4.06,18.75,13,.27,10.17-8.23,13.7-12.77,14.16Zm-13.36-5.24h13.22c1.21-.16,8.14-1.36,7.94-8.79-.17-6.55-5-7.84-13.43-7.87h-7.73Z" transform="translate(0.5 0.2)"/><path class="cls-2" d="M305.92,271a2.61,2.61,0,0,1-2.61-2.61V233.16a2.59,2.59,0,0,1,2.61-2.61h14.27c4.1.4,11.73,3.59,11.49,12.78C331.37,255,319.91,255,315,255.07h-6.47v13.34A2.63,2.63,0,0,1,305.92,271Zm2.63-21.2h6.37c7.38,0,11.37-1.08,11.53-6.63.18-6.2-5.57-7.26-6.68-7.41H308.55Z" transform="translate(0.5 0.2)"/><path class="cls-2" d="M356.11,277.51a15.92,15.92,0,0,1-14.18-8.58,2.62,2.62,0,1,1,4.6-2.5,11,11,0,0,0,12.67,5.45c3.62-.92,7.29-3.74,7.29-8,0-3.71-2.37-4.56-8.6-5.89-4.68-1-10-2.13-13.17-6.56s-3.65-9.19-1.49-13.33c2.36-4.61,7.67-7.57,13.52-7.57,10.63,0,14.61,9.42,14.78,9.83a2.61,2.61,0,0,1-4.84,2c-.12-.26-2.86-6.58-9.94-6.58-3.93,0-7.4,1.85-8.87,4.73-1.25,2.42-.86,5.14,1.1,7.91s5.89,3.6,10,4.48c5.68,1.22,12.75,2.71,12.75,11,0,6.11-4.54,11.36-11.27,13.07A18.77,18.77,0,0,1,356.11,277.51Z" transform="translate(0.5 0.2)"/><path class="cls-2" d="M23.13,277.48c-13.3,0-23.63-12-23.63-22.28,0-11.38,6.73-23.59,21.52-23.59,15.24,0,21.28,10.8,21.53,11.26a2.62,2.62,0,0,1-4.6,2.51C37.73,245,33,236.83,21,236.83c-12.84,0-16.29,11.54-16.29,18.37,0,7.72,8.22,17.05,18.4,17.05,10.61,0,13.33-3.32,14.5-9.47v-4.66H23.32a2.61,2.61,0,1,1,0-5.22H40.25a2.61,2.61,0,0,1,2.61,2.6V263a3.44,3.44,0,0,1,0,.46C41,273.44,35.29,277.48,23.13,277.48Z" transform="translate(0.5 0.2)"/><path class="cls-2" d="M262.82,276.58a2.62,2.62,0,0,1-1.05-.21,2.73,2.73,0,0,1-1.45-3.56l17.12-40.68a2.72,2.72,0,0,1,5,2.11l-17.12,40.68A2.75,2.75,0,0,1,262.82,276.58Z" transform="translate(0.5 0.2)"/><path class="cls-2" d="M297.07,276.58a2.72,2.72,0,0,1-2.5-1.66l-17.13-40.68a2.72,2.72,0,0,1,5-2.11l17.13,40.68a2.74,2.74,0,0,1-1.45,3.56A2.71,2.71,0,0,1,297.07,276.58Z" transform="translate(0.5 0.2)"/><path class="cls-2" d="M287.09,258.94h-14.3a2.71,2.71,0,1,1,0-5.42h14.3a2.71,2.71,0,1,1,0,5.42Z" transform="translate(0.5 0.2)"/><path class="cls-3" d="M184.66,96a3.46,3.46,0,1,0-3.46-3.45A3.44,3.44,0,0,0,184.66,96Z" transform="translate(0.5 0.2)"/><path class="cls-3" d="M210.6,114.57a6.9,6.9,0,1,0-6.89-6.91A6.91,6.91,0,0,0,210.6,114.57Z" transform="translate(0.5 0.2)"/><path class="cls-3" d="M172.55,69.39l7.74-14.48V11.85c0-12.41-12-12-12-12H134.18C115.31-.19,100,15,100,33.59V145.27c0,18.63,15.36,33.79,34.23,33.79H250.94c18.88,0,34.24-15.16,34.24-33.79V33.59C285.18,15,269.82-.19,250.94-.19H216.75v0s-12-.37-12,12c0,0,0,0,0,0h0l0,0,0,0h0V54.91l7.75,14.48m1.28,2.42,24.6,46,.18.31.19.27c1.77,2.58,4,7.6,3.13,10.21-.12.33-.38,1.15-2.08,1.94h-94.5c-1.72-.79-2-1.61-2.09-1.94-.85-2.61,1.36-7.63,3.11-10.2l.2-.28,24.77-46.3m101.88,73.46A22,22,0,0,1,250.94,167H134.18A22,22,0,0,1,112,145.27V33.59a22,22,0,0,1,22.19-21.74h34.07V51.9l-32.07,60c-1.4,2.1-7.28,11.71-4.47,20.41,1,3.23,3.68,7.58,10.37,10l1,.34H242l1-.34c6.7-2.39,9.35-6.74,10.4-10,2.79-8.7-3.09-18.31-4.49-20.41L216.75,51.9V12l.09-.11h34.1a22,22,0,0,1,22.19,21.74Z" transform="translate(0.5 0.2)"/><polygon class="cls-3" points="214.24 72 212.95 69.59 173.05 69.59 171.75 72 214.24 72"/></svg>