<?xml version="1.0" encoding="UTF-8"?>
<svg width="54px" height="46px" viewBox="0 0 54 46" version="1.1" xmlns="http://www.w3.org/2000/svg" xmlns:xlink="http://www.w3.org/1999/xlink">
    <title>Artboard Copy 11</title>
    <defs>
        <polygon id="path-1" points="0.11018913 0.0122122727 6.902 0.0122122727 6.902 8.23844182 0.11018913 8.23844182"></polygon>
        <polygon id="path-3" points="0 0.0122122727 6.15272866 0.0122122727 6.15272866 8.23844182 0 8.23844182"></polygon>
        <polygon id="path-5" points="0.120617154 0.0778660714 7.0980766 0.0778660714 7.0980766 8.49998482 0.120617154 8.49998482"></polygon>
    </defs>
    <g id="Artboard-Copy-11" stroke="none" stroke-width="1" fill="none" fill-rule="evenodd">
        <rect fill="#FFFFFF" x="0" y="0" width="54" height="46"></rect>
        <g id="Group" transform="translate(15.500000, 3.252892)" fill="#2962FF">
            <path d="M3.32378408,3.32794922 C-1.10792803,7.76570815 -1.10792803,14.9408086 3.32378408,19.3469961 L11.33831,27.3720586 L19.3533286,19.3469961 C23.784548,14.9097305 23.784548,7.73413672 19.3533286,3.32794922 C14.9216165,-1.10931641 7.75549618,-1.10931641 3.32378408,3.32794922 M17.4835846,17.5286791 C14.1047429,20.9147148 8.60291639,20.9147148 5.17628408,17.5286791 C1.79744232,14.1421501 1.79744232,8.62800279 5.17628408,5.19313002 C8.55463314,1.75825725 14.0564596,1.80709431 17.4835846,5.19313002 C20.9102169,8.57916574 20.9102169,14.0942997 17.4835846,17.5286791" id="Fill-13"></path>
            <path d="M13.9593923,9.649502 L15.2526494,9.649502 L15.8496884,11.0204448 L13.9593923,11.0204448 L13.9593923,9.649502 Z M16.7094049,15.1846079 L17.8892442,15.1846079 L17.8892442,12.340556 C17.7399845,11.8327435 16.5463975,11.2237711 16.5463975,11.2237711 L15.6012495,9.09085792 L13.0142442,9.09085792 L13.0643248,9.09085792 L13.0643248,15.1846079 L14.1847549,15.1846079 C14.214705,14.4961168 14.7685372,13.9475384 15.4470799,13.9475384 C16.1261135,13.9475384 16.6799457,14.4961168 16.7094049,15.1846079 L16.7094049,15.1846079 Z" id="Fill-16-Copy"></path>
            <path d="M6.27036593,10.694922 L11.6331226,10.694922 L11.6331226,10.5453836 L6.27036593,10.5453836 L6.27036593,10.694922 Z M6.27036593,9.15117202 L11.6331226,9.15117202 L11.6331226,9.00163358 L6.27036593,9.00163358 L6.27036593,9.15117202 Z M6.27036593,12.1389797 L11.6331226,12.1389797 L11.6331226,11.9894413 L6.27036593,11.9894413 L6.27036593,12.1389797 Z M8.63681161,14.7783579 L12.6079942,14.7783579 L12.6079942,7.05960792 L5.29549425,7.05960792 L5.29549425,14.7783579 L6.1625815,14.7783579 C6.19145233,14.1032141 6.73422393,13.5652705 7.39969656,13.5652705 C8.064688,13.5652705 8.6074596,14.1032141 8.63681161,14.7783579 L8.63681161,14.7783579 Z" id="Fill-18-Copy"></path>
            <path d="M17.8892442,13.6378223 C17.8892442,13.8250721 17.715178,13.9658579 17.4832805,13.9658579 C17.2508105,13.9658579 17.0767442,13.8250721 17.0767442,13.6378223 L17.0767442,13.0751436 C17.0767442,12.8878938 17.2508105,12.7471079 17.4832805,12.7471079 C17.715178,12.7471079 17.8892442,12.8878938 17.8892442,13.0751436 L17.8892442,13.6378223" id="Fill-20-Copy"></path>
            <path d="M5.29549425,14.0437328 C5.29549425,14.2313757 5.121428,14.3721079 4.88953054,14.3721079 C4.65706049,14.3721079 4.48299425,14.2313757 4.48299425,14.0437328 L4.48299425,13.481733 C4.48299425,13.2936256 4.65706049,13.1533579 4.88953054,13.1533579 C5.121428,13.1533579 5.29549425,13.2936256 5.29549425,13.481733 L5.29549425,14.0437328" id="Fill-21-Copy"></path>
            <path d="M16.4673692,15.1846079 C16.4673692,15.7450435 16.012706,16.2002329 15.4517442,16.2002329 C14.8907825,16.2002329 14.4361192,15.7450435 14.4361192,15.1846079 C14.4361192,14.6236461 14.8907825,14.1689829 15.4517442,14.1689829 C16.012706,14.1689829 16.4673692,14.6236461 16.4673692,15.1846079" id="Fill-22-Copy"></path>
            <path d="M8.42379675,14.7783579 C8.42379675,15.3387935 7.96913354,15.7939829 7.40817175,15.7939829 C6.84720996,15.7939829 6.39254675,15.3387935 6.39254675,14.7783579 C6.39254675,14.2173961 6.84720996,13.7627329 7.40817175,13.7627329 C7.96913354,13.7627329 8.42379675,14.2173961 8.42379675,14.7783579" id="Fill-23-Copy"></path>
        </g>
        <g id="Group-2" transform="translate(3.500000, 33.800586)">
            <path d="M16.375,0.125 L19.8816487,0.125 C20.3864657,0.125 20.835024,0.197691261 21.2273234,0.342921071 C21.6193203,0.488456306 21.943716,0.690647965 22.2000566,0.949954186 C22.4018019,1.15443654 22.5572698,1.39404282 22.6660067,1.66892574 C22.7745922,1.94411408 22.8291875,2.24633258 22.8291875,2.57649751 L22.8291875,2.60001527 C22.8291875,2.9457569 22.7745922,3.25408391 22.6660067,3.52514901 C22.5572698,3.79621411 22.4039192,4.03184986 22.2059547,4.23236168 C22.0076877,4.43272079 21.772671,4.59765054 21.5010558,4.72730365 C21.2291382,4.85710947 20.9340818,4.94934796 20.6157356,5.00432455 L23.125,8.375 L21.9928668,8.375 L19.625913,5.1692543 L17.29707,5.1692543 L17.29707,8.375 L16.375,8.375 L16.375,0.125 Z M19.8063344,4.33254123 C20.1097086,4.33254123 20.3899441,4.29329406 20.6467384,4.21479971 C20.9033815,4.13630537 21.1250896,4.02421422 21.3118629,3.8788317 C21.4986361,3.73344918 21.6445763,3.55660783 21.7495323,3.34846038 C21.8544883,3.14031292 21.9072687,2.9025392 21.9072687,2.63529191 L21.9072687,2.61177415 C21.9072687,2.10110277 21.7242763,1.70252254 21.358594,1.41557531 C20.9927604,1.1287808 20.479323,0.98538354 19.8179794,0.98538354 L17.29707,0.98538354 L17.29707,4.33254123 L19.8063344,4.33254123 Z" id="Fill-1-Copy" fill="#2962FF"></path>
            <polygon id="Fill-3-Copy" fill="#2962FF" points="26.8538972 0.985367614 24.125 0.985367614 24.125 0.125 30.5 0.125 30.5 0.985367614 27.7712532 0.985367614 27.7712532 8.375 26.8538972 8.375"></polygon>
            <polygon id="Fill-5-Copy" fill="#2962FF" points="32.25 0.125 38.1912719 0.125 38.1912719 0.97362466 33.1777817 0.97362466 33.1777817 3.79025832 37.6628715 3.79025832 37.6628715 4.63903569 33.1777817 4.63903569 33.1777817 7.52652805 38.25 7.52652805 38.25 8.375 32.25 8.375"></polygon>
            <g id="Group-9-Copy" transform="translate(40.000000, 0.125000)">
                <mask id="mask-2" fill="white">
                    <use xlink:href="#path-1"></use>
                </mask>
                <g id="Clip-8"></g>
                <path d="M0.11018913,0.0122122727 L3.63864565,0.0122122727 C4.14645,0.0122122727 4.59795,0.0846940909 4.99268913,0.229505455 C5.38712391,0.374621364 5.71338478,0.576230455 5.97147174,0.834789545 C6.17447174,1.03868273 6.33075435,1.27759864 6.44031957,1.55168955 C6.54958043,1.826085 6.60451522,2.12743273 6.60451522,2.45664636 L6.60451522,2.48009636 C6.60451522,2.82484182 6.54958043,3.13228045 6.44031957,3.40256455 C6.33075435,3.67284864 6.17660217,3.90780545 5.97740652,4.10773955 C5.77790652,4.30752136 5.54142826,4.47197591 5.26812391,4.60125545 C4.99451522,4.73068727 4.69762391,4.82266 4.37714565,4.87747818 L6.90201522,8.23844182 L5.76299348,8.23844182 L3.38131957,5.04193273 L1.03799348,5.04193273 L1.03799348,8.23844182 L0.11018913,8.23844182 L0.11018913,0.0122122727 Z M3.56286304,4.20763045 C3.86797174,4.20763045 4.15010217,4.16849636 4.40849348,4.09022818 C4.66673261,4.01196 4.88981957,3.90019182 5.07775435,3.75522818 C5.26568913,3.61026455 5.41253696,3.43393273 5.51829783,3.226385 C5.62375435,3.01883727 5.67671087,2.78174864 5.67671087,2.51527136 L5.67671087,2.49182136 C5.67671087,1.98262136 5.49258043,1.58518955 5.12477609,1.29906909 C4.75651522,1.01310091 4.24003696,0.870116818 3.57458043,0.870116818 L1.03799348,0.870116818 L1.03799348,4.20763045 L3.56286304,4.20763045 Z" id="Fill-7" fill="#2962FF" mask="url(#mask-2)"></path>
            </g>
            <g id="Group-12-Copy" transform="translate(0.000000, 0.125000)">
                <mask id="mask-4" fill="white">
                    <use xlink:href="#path-3"></use>
                </mask>
                <g id="Clip-11"></g>
                <path d="M-1.52439024e-05,0.0122122727 L3.07650915,0.0122122727 C3.53809451,0.0122122727 3.95897866,0.0729690909 4.33870427,0.194178182 C4.71842988,0.315844091 5.043125,0.488064545 5.31309451,0.711448636 C5.5833689,0.934680455 5.79053354,1.20709636 5.93550305,1.52823955 C6.08032012,1.849535 6.15272866,2.21377136 6.15272866,2.62110091 L6.15272866,2.64470318 C6.15272866,3.09116682 6.06644817,3.48113727 5.89434451,3.81400545 C5.72224085,4.14702591 5.48931402,4.42705545 5.19602134,4.65424636 C4.90257622,4.88158955 4.56019817,5.05198273 4.16903963,5.16542591 C3.77772866,5.27902136 3.36309451,5.33581909 2.92483232,5.33581909 L0.929405488,5.33581909 L0.929405488,8.23844182 L-1.52439024e-05,8.23844182 L-1.52439024e-05,0.0122122727 Z M2.9646189,4.48979182 C3.30181402,4.48979182 3.60974085,4.44669864 3.88809451,4.36051227 C4.16644817,4.27432591 4.40577744,4.150985 4.60577744,3.99033727 C4.80577744,3.82968955 4.95867378,3.63965318 5.0646189,3.42022818 C5.17041159,3.20095545 5.22346037,2.95412136 5.22346037,2.67987818 L5.22346037,2.65642818 C5.22346037,2.06865545 5.02132622,1.62417136 4.61766768,1.32251909 C4.21355183,1.02101909 3.67818598,0.870116818 3.01172256,0.870116818 L0.929405488,0.870116818 L0.929405488,4.48979182 L2.9646189,4.48979182 Z" id="Fill-10" fill="#2962FF" mask="url(#mask-4)"></path>
            </g>
            <g id="Group-15-Copy" transform="translate(7.625000, 0.000000)">
                <mask id="mask-6" fill="white">
                    <use xlink:href="#path-5"></use>
                </mask>
                <g id="Clip-14"></g>
                <path d="M1.14331995,1.10179732 C-0.220283777,2.46726161 -0.220283777,4.67498482 1.14331995,6.03073482 L3.60932793,8.49998482 L6.0754875,6.03073482 C7.43893963,4.66542232 7.43893963,2.45754732 6.0754875,1.10179732 C4.71188378,-0.263515179 2.50692367,-0.263515179 1.14331995,1.10179732 M5.50018165,5.47125268 C4.46053803,6.51310982 2.76766835,6.51310982 1.71331995,5.47125268 C0.67367633,4.42924375 0.67367633,2.73258304 1.71331995,1.67569911 C2.75281197,0.618815179 4.44568165,0.633841964 5.50018165,1.67569911 C6.55453005,2.71755625 6.55453005,4.41452054 5.50018165,5.47125268" id="Fill-13" fill="#2962FF" mask="url(#mask-6)"></path>
            </g>
            <path d="M12.0408148,3.04689049 L12.4387401,3.04689049 L12.6224444,3.46871903 L12.0408148,3.46871903 L12.0408148,3.04689049 Z M12.8869725,4.75 L13.25,4.75 L13.25,3.87490709 C13.2040739,3.71865709 12.8368164,3.53128097 12.8368164,3.53128097 L12.5460016,2.875 L11.75,2.875 L11.7654094,2.875 L11.7654094,4.75 L12.1101571,4.75 C12.1193725,4.53815659 12.2897825,4.36936323 12.4985648,4.36936323 C12.7074982,4.36936323 12.8779081,4.53815659 12.8869725,4.75 L12.8869725,4.75 Z" id="Fill-16-Copy" fill="#2962FF"></path>
            <path d="M9.67496052,3.36855818 L11.3250395,3.36855818 L11.3250395,3.32254636 L9.67496052,3.32254636 L9.67496052,3.36855818 Z M9.67496052,2.89355818 L11.3250395,2.89355818 L11.3250395,2.84754636 L9.67496052,2.84754636 L9.67496052,2.89355818 Z M9.67496052,3.81288363 L11.3250395,3.81288363 L11.3250395,3.7668718 L9.67496052,3.7668718 L9.67496052,3.81288363 Z M10.4030977,4.625 L11.625,4.625 L11.625,2.25 L9.375,2.25 L9.375,4.625 L9.64179608,4.625 C9.65067941,4.41726343 9.81768606,4.25174233 10.0224469,4.25174233 C10.2270596,4.25174233 10.3940663,4.41726343 10.4030977,4.625 L10.4030977,4.625 Z" id="Fill-18-Copy" fill="#2962FF"></path>
            <path d="M13.25,4.27406596 C13.25,4.33168128 13.1964412,4.375 13.1250881,4.375 C13.0535588,4.375 13,4.33168128 13,4.27406596 L13,4.10093404 C13,4.04331872 13.0535588,4 13.1250881,4 C13.1964412,4 13.25,4.04331872 13.25,4.10093404 L13.25,4.27406596" id="Fill-20-Copy" fill="#2962FF"></path>
            <path d="M9.375,4.39896151 C9.375,4.45669779 9.32144116,4.5 9.25008809,4.5 C9.17855884,4.5 9.125,4.45669779 9.125,4.39896151 L9.125,4.22603849 C9.125,4.1681593 9.17855884,4.125 9.25008809,4.125 C9.32144116,4.125 9.375,4.1681593 9.375,4.22603849 L9.375,4.39896151" id="Fill-21-Copy" fill="#2962FF"></path>
            <path d="M12.8125,4.75 C12.8125,4.92244171 12.6726036,5.0625 12.5,5.0625 C12.3273964,5.0625 12.1875,4.92244171 12.1875,4.75 C12.1875,4.57739637 12.3273964,4.4375 12.5,4.4375 C12.6726036,4.4375 12.8125,4.57739637 12.8125,4.75" id="Fill-22-Copy" fill="#2962FF"></path>
            <path d="M10.3363016,4.625 C10.3363016,4.79744171 10.1964052,4.9375 10.0238016,4.9375 C9.85119794,4.9375 9.71130157,4.79744171 9.71130157,4.625 C9.71130157,4.45239637 9.85119794,4.3125 10.0238016,4.3125 C10.1964052,4.3125 10.3363016,4.45239637 10.3363016,4.625" id="Fill-23-Copy" fill="#2962FF"></path>
        </g>
    </g>
</svg>