<svg xmlns="http://www.w3.org/2000/svg" viewBox="0 0 196 196"><title>pupilfirst-logo</title><path d="M4.31,136.06h3.9v2.22a9.38,9.38,0,0,1,7-2.7c6.82,0,10.55,5.46,10.55,11.64S22,158.85,15.14,158.85a9,9,0,0,1-6.93-2.7v11.49H2v-29.3A2.34,2.34,0,0,1,4.31,136.06Zm15.42,11.18c0-3.72-1.84-6.59-6-6.59s-6.06,2.84-6.06,6.59,1.92,6.68,6.06,6.68S19.73,151,19.73,147.24Zm9.49,2.26V138.37a2.28,2.28,0,0,1,2.28-2.29h3.65v12.75c0,2.92,1.61,5,4.7,5,3.37,0,5.54-1.67,5.54-5.57v-9.93a2.28,2.28,0,0,1,2.28-2.29h3.67v22.38h-6v-2.64a9.71,9.71,0,0,1-7.27,3.06C31.69,158.88,29.22,154.17,29.22,149.5Zm29.3-13.44h3.9v2.22a9.38,9.38,0,0,1,7-2.7C76.25,135.58,80,141,80,147.22s-3.73,11.63-10.63,11.63a9,9,0,0,1-6.93-2.7v11.49H56.21v-29.3a2.3,2.3,0,0,1,2.31-2.28Zm15.42,11.18c0-3.72-1.84-6.59-6-6.59s-6.07,2.84-6.07,6.59,1.92,6.68,6.07,6.68S73.94,151,73.94,147.24Zm12.61-20.45h1.72a2.28,2.28,0,0,1,2.29,2.28h0v.45a2.27,2.27,0,0,1-2.29,2.28H86.55a2.27,2.27,0,0,1-2.28-2.28h0v-.45A2.25,2.25,0,0,1,86.55,126.79Zm.14,9.27h3.7v22.37h-6V138.37a2.3,2.3,0,0,1,2.31-2.31ZM95.82,154V129.1a2.27,2.27,0,0,1,2.28-2.28h3.7v25.66c0,1.05.75,1.5,2,1.5a11.13,11.13,0,0,0,1.65-.14v4.59a27,27,0,0,1-4.48.45C98.13,158.88,95.82,157.9,95.82,154Zm15.11-13.36h-4.51v-2.28A2.32,2.32,0,0,1,108.7,136H111v-3c0-4.34,3.73-6.73,7.85-6.73a12.22,12.22,0,0,1,4.46.92l-2,4.51a4.19,4.19,0,0,0-1.92-.56,2.15,2.15,0,0,0-2.25,2.45v2.45h5.73v4.56h-5.73v17.81H110.9Zm18.53-13.83h1.73a2.27,2.27,0,0,1,2.28,2.28h0v.45a2.27,2.27,0,0,1-2.28,2.28h-1.73a2.27,2.27,0,0,1-2.28-2.28h0v-.45A2.25,2.25,0,0,1,129.46,126.79Zm.14,9.27h3.7v22.37h-6V138.37a2.32,2.32,0,0,1,2.31-2.31Zm11.61,0h3.56v3.75a7,7,0,0,1,6.59-4.23,6.57,6.57,0,0,1,4.51,1.62l-2.72,4.48a5.09,5.09,0,0,0-2.7-.75c-2.82,0-5.74,2.36-5.74,8.07v9.46H138.9V138.37A2.33,2.33,0,0,1,141.21,136.06Zm15.47,16,3.42-1.39a5.31,5.31,0,0,0,5.23,3.67c2.79,0,4-1.47,4-2.67,0-3.76-12.35-1.23-12.35-9.13,0-4.73,4.4-7,9.13-7a10.7,10.7,0,0,1,8.26,3.43,1.42,1.42,0,0,1-.11,2,1.31,1.31,0,0,1-.28.2l-3.17,1.58a5.36,5.36,0,0,0-4.87-2.83c-2,0-3.17.86-3.17,1.92,0,3.39,12.52,1.36,12.52,9.57,0,5.18-5,7.46-9.6,7.46-4.43,0-7.93-2.06-9.63-4.82a1.4,1.4,0,0,1,.47-1.92Zm25.19.19V140.62h-4v-2.28a2.27,2.27,0,0,1,2.29-2.28H182v-4.32a2.29,2.29,0,0,1,1-1.92l4.87-3.23v9.47H194v4.56h-6.15v10.66c0,2.14,1.17,2.78,2.73,2.78a9.1,9.1,0,0,0,3.42-.8v5a15.39,15.39,0,0,1-4.48.67C184.76,158.88,181.87,156.32,181.87,152.25ZM98.29,55.36A14.17,14.17,0,1,1,84.13,69.52,14.16,14.16,0,0,1,98.29,55.36ZM144.57,59l-15.64-17a41.08,41.08,0,0,0-58.05-3.2,43.91,43.91,0,0,0-3.2,3.2L52,59a14.78,14.78,0,0,0-1,19.93l0,0a8,8,0,0,0,1,1L67.68,97c.95,1,1.92,2,3,3V70.47c0-.31,0-.62,0-.92A27.69,27.69,0,1,1,84.15,93.34V108.2A41.1,41.1,0,0,0,128.93,97l15.62-17c.33-.33.66-.67,1-1l0,0A14.75,14.75,0,0,0,149,69.55,14.91,14.91,0,0,0,144.57,59Z" fill="#4d1e9a"/></svg>