<svg id="b2e7ad87-4010-40a8-85f2-34dd7a59bee7" data-name="Layer 1" xmlns="http://www.w3.org/2000/svg" xmlns:xlink="http://www.w3.org/1999/xlink" viewBox="0 0 130 45.84"><defs><radialGradient id="b9e2ab33-d888-4403-a575-26d59dfdb77d" cx="18.62" cy="18.56" r="17.98" gradientTransform="matrix(1, 0, 0, -1, 0, 46.73)" gradientUnits="userSpaceOnUse"><stop offset="0" stop-color="#73bd44"/><stop offset="1" stop-color="#108040"/></radialGradient><radialGradient id="a859c58e-75ec-4d0b-8443-da40400571eb" cx="26.9" cy="38.87" r="35.43" gradientTransform="matrix(1, 0, 0, -1, 0, 46.73)" gradientUnits="userSpaceOnUse"><stop offset="0" stop-color="#14aae2"/><stop offset="1" stop-color="#26225b"/></radialGradient></defs><title>SV.CO-Logo-reason-react</title><g id="add5aba7-cd94-413e-81bc-35293f1e0d72" data-name=" Group "><path id="a22a1263-e538-4583-9757-d4f3574542fd" data-name=" Path 2" d="M49.91,34.13l.21-.77-.42-.21C49.84,33.78,49.49,34,49.91,34.13Z" fill="#f0be67"/><path id="a96713d1-49a1-4839-ba51-794619142ea0" data-name=" Path 3" d="M47.45,33l.14.49c-.28,0-.35.35-.35.7s.35-.35.49-.56S47.66,32.58,47.45,33Z" fill="#f0be67"/><path id="fbf840f2-b35b-44a6-96d0-31c7aec8b682" data-name=" Path 4" d="M40.56,32.73a1.63,1.63,0,0,0,.7,1.12l.21-.28h-.14l.35-.49C41.12,32.87,41,33.15,40.56,32.73Z" fill="#f0be67"/><path id="f8715e5e-c91b-4289-98ea-42b7bfb7161d" data-name=" Path 5" d="M55.61,33.08c0,.35.64.21.92.28S55.75,32.87,55.61,33.08Z" fill="#f0be67"/><path id="a69712d6-890c-4dbb-b653-a0eeddb0823b" data-name=" Path 10" d="M52.45,32.94h0C52.45,33,52.52,33,52.45,32.94Z" fill="#f0be67"/><path id="eb6d7b4d-226e-4759-9316-7574d0893534" data-name=" Path 11" d="M60.54,32.73h-.07C60.47,32.87,60.47,32.8,60.54,32.73Z" fill="#f0be67"/><g id="f11c258d-3b7f-497d-9e83-258730ded19b" data-name=" Group 2"><path id="bf246334-954e-45d6-9f4b-397f6b0248d5" data-name=" Compound Path " d="M39.22,40.47c.07.49.49.77,1.19.77s1.06-.28,1.06-.77-.28-.57-1-.78l-.71-.14c-.91-.21-1.41-.7-1.41-1.48a1.79,1.79,0,0,1,2-1.54,1.75,1.75,0,0,1,2,1.47H41.4a.91.91,0,0,0-1.06-.7c-.63,0-1,.28-1,.7s.28.57.91.71l.64.14c1.05.21,1.47.7,1.47,1.47a1.85,1.85,0,0,1-2,1.62c-1.26,0-2-.63-2-1.55Z"/><path id="e7a4838c-32eb-46e6-a46e-b25bc3cadb1c" data-name=" Compound Path 2" d="M44.5,37v1h.84v.71H44.5v2c0,.42.14.56.56.56h.28v.7h-.49c-.92,0-1.27-.28-1.27-1V38.64H43v-.71h.63V37Z"/><path id="bd120bb5-46d8-4a9a-930d-b93fc6794de6" data-name=" Compound Path 3" d="M46,40.75c0-.71.57-1.13,1.48-1.2h1.06V39.2c0-.42-.29-.63-.78-.63s-.7.14-.77.42h-.85c.07-.71.71-1.13,1.69-1.13s1.62.49,1.62,1.34v2.67h-.91v-.56h-.07a1.36,1.36,0,0,1-1.2.63A1.18,1.18,0,0,1,46,40.82.2.2,0,0,1,46,40.75Zm2.54-.36v-.28h-.92c-.49,0-.7.21-.7.57s.28.56.7.56a.84.84,0,0,0,.91-.77A.22.22,0,0,0,48.51,40.39Z"/><path id="aa695648-c98e-4f37-9004-5521d27de372" data-name=" Compound Path 4" d="M50.41,37.86h.84v.64h.07a1.06,1.06,0,0,1,1.06-.71h.35v.92h-.49a.91.91,0,0,0-1,.84v2.39h-.84Z"/><path id="f3fec48f-6650-4e34-86b1-fa5634d8a397" data-name=" Compound Path 5" d="M54.84,37v1h.84v.71h-.84v2c0,.42.14.56.56.56h.28v.7h-.49c-.91,0-1.27-.28-1.27-1V38.64h-.63v-.71h.63V37Z"/><path id="e098cd49-644e-4bf9-9d5c-8a441bcc09f0" data-name=" Compound Path 6" d="M60,41.87h-.84v-.63h-.07a1.2,1.2,0,0,1-1.2.7,1.26,1.26,0,0,1-1.41-1.09,1,1,0,0,1,0-.38V37.86h.91v2.32c0,.64.28.92.78.92a.84.84,0,0,0,.91-.77V37.86H60Z"/><path id="bef2bf24-db28-4a0c-a612-06e562039758" data-name=" Compound Path 7" d="M64.83,39.9c0,1.27-.63,2-1.62,2a1.28,1.28,0,0,1-1.2-.63h-.07v1.9H61V37.86h.84v.64h.07a1.34,1.34,0,0,1,1.2-.71C64.2,37.86,64.83,38.64,64.83,39.9Zm-.92,0c0-.77-.35-1.26-1-1.26s-1,.49-1,1.26.36,1.27,1,1.27S63.91,40.68,63.91,39.9Z"/><path id="f024e158-24e4-496f-9e6a-23e5e726f911" data-name=" Compound Path 8" d="M69.19,41.87l-1.83-5.2h1.06l1.33,4.15h.07l1.34-4.15h.92l-1.83,5.2Z"/><path id="aa822649-e31d-4c20-be8a-6e05695b18fd" data-name=" Compound Path 9" d="M72.71,36.74a.56.56,0,1,1,1.12-.14.55.55,0,0,1-.49.62h-.07a.5.5,0,0,1-.56-.42Zm.14,1.12h.91V41.8h-.91Z"/><path id="b25eb604-6467-4684-b53a-2588f4e89d18" data-name=" Compound Path 10" d="M74.82,36.38h.92v5.49h-.92Z"/><path id="ab2b3b25-04b4-475e-8a14-1bdf98d768a3" data-name=" Compound Path 11" d="M76.86,36.38h.92v5.49h-.92Z"/><path id="e86fc4aa-6cf8-47f7-afed-c32c44a4d0af" data-name=" Compound Path 12" d="M78.69,40.75c0-.71.56-1.13,1.48-1.2h1V39.2c0-.42-.28-.63-.77-.63s-.7.14-.77.42h-.85c.07-.71.7-1.13,1.69-1.13s1.62.49,1.62,1.34v2.67h-.92v-.56h-.07a1.33,1.33,0,0,1-1.19.63,1.2,1.2,0,0,1-1.27-1.12Zm2.53-.36v-.28h-.91c-.49,0-.71.21-.71.57s.29.56.71.56a.85.85,0,0,0,.84-.85h.07Z"/><path id="a22f0b2d-bbc9-41cf-949d-6035fd1a782d" data-name=" Compound Path 13" d="M83.05,42.22H84c.07.29.35.43.84.43s1-.29,1-.78v-.7h-.07a1.28,1.28,0,0,1-1.2.63c-1,0-1.62-.77-1.62-2s.63-2,1.62-2a1.34,1.34,0,0,1,1.2.71h.07v-.64h.84v4c0,.92-.7,1.48-1.9,1.48S83.12,42.93,83.05,42.22Zm2.75-2.39c0-.77-.36-1.26-1-1.26s-1,.49-1,1.26.35,1.27,1,1.27S85.8,40.61,85.8,39.83Z"/><path id="e2bad207-3513-4700-8b2e-9937842103c6" data-name=" Compound Path 14" d="M91.21,40.75a1.6,1.6,0,0,1-1.75,1.19,1.81,1.81,0,0,1-1.9-2,1.8,1.8,0,0,1,1.82-2,1.78,1.78,0,0,1,1.83,2v.28H88.47a1,1,0,0,0,.91,1.06h.08a.92.92,0,0,0,.91-.42Zm-2.74-1.27h1.9a.92.92,0,0,0-.84-1h-.07a.9.9,0,0,0-1,.83Z"/><path id="ef73971c-0215-45a7-8cca-0ebb2ab3eabc" data-name=" Compound Path 15" d="M93.89,39.27c0-1.69.91-2.74,2.39-2.74a2.1,2.1,0,0,1,2.18,1.89h-.91a1.28,1.28,0,0,0-1.27-1.05c-.91,0-1.41.7-1.41,1.9s.57,1.9,1.48,1.9a1.29,1.29,0,0,0,1.27-1h.91a2,2,0,0,1-2.18,1.76C94.8,42,93.89,41,93.89,39.27Z"/><path id="b0680688-0359-4532-997e-b70885f58633" data-name=" Compound Path 16" d="M99.24,39.9a1.9,1.9,0,1,1,3.79,0h0a1.9,1.9,0,0,1-3.79,0Zm2.88,0c0-.84-.35-1.33-1-1.33s-1,.49-1,1.33.35,1.34,1,1.34,1-.56,1-1.34Z"/><path id="bb8bf24e-0cfa-48f3-9cf9-f89d6075ee8f" data-name=" Compound Path 17" d="M104,36.38h.91v5.49H104Z"/><path id="b36d3811-e7cc-49aa-8edf-35c48167b74b" data-name=" Compound Path 18" d="M106,36.38h.91v5.49H106Z"/><path id="ee14fc3a-11d9-44a1-8c24-58580a817833" data-name=" Compound Path 19" d="M111.41,40.75a1.62,1.62,0,0,1-1.76,1.19,1.81,1.81,0,0,1-1.9-2,1.8,1.8,0,0,1,1.83-2,1.78,1.78,0,0,1,1.83,2v.28h-2.75a1,1,0,0,0,.92,1.06h.07a.92.92,0,0,0,.91-.42Zm-2.75-1.27h1.9a.92.92,0,0,0-.84-1h-.07a.9.9,0,0,0-1,.83Z"/><path id="a1807164-7942-4f89-a2e7-6614bc0dc34b" data-name=" Compound Path 20" d="M114.85,39.2a.82.82,0,0,0-.84-.63c-.63,0-1,.49-1,1.26s.35,1.34,1,1.34a.77.77,0,0,0,.84-.63h.85a1.54,1.54,0,0,1-1.68,1.4h0a1.81,1.81,0,0,1-1.9-2,1.82,1.82,0,0,1,1.9-2,1.55,1.55,0,0,1,1.75,1.32s0,.06,0,.09Z"/><path id="a55f1fd5-4491-4578-b48f-310884a21742" data-name=" Compound Path 21" d="M117.81,37v1h.84v.71h-.84v2c0,.42.14.56.56.56h.28v.7h-.49c-.91,0-1.26-.28-1.26-1V38.64h-.64v-.71h.64V37Z"/><path id="b20c8bc1-c353-4782-9d4b-df6cdba43b7e" data-name=" Compound Path 22" d="M119.43,36.74a.56.56,0,1,1,.63.48H120a.5.5,0,0,1-.56-.42Zm.14,1.12h.91V41.8h-.91Z"/><path id="a9cefe6f-f1d1-44fb-94e3-89db8d80aaac" data-name=" Compound Path 23" d="M123.51,41.87h-1l-1.4-3.94h1L123,41h.07l.91-3.1h.92Z"/><path id="a353832b-c5ad-47b6-b119-2a5d06203849" data-name=" Compound Path 24" d="M128.93,40.75a1.62,1.62,0,0,1-1.76,1.19,1.81,1.81,0,0,1-1.9-2,1.8,1.8,0,0,1,1.83-2,1.78,1.78,0,0,1,1.83,2v.28h-2.75a1,1,0,0,0,.91,1.06h.08a.92.92,0,0,0,.91-.42Zm-2.75-1.27h1.9a.92.92,0,0,0-.84-1h-.07a.9.9,0,0,0-1,.83v.15Z"/></g><path id="a5295285-4280-418d-bfb0-5662ba1f4209" data-name=" Compound Path 25" d="M45.55,31.53a2.18,2.18,0,0,0,.21.7h-.35a1.07,1.07,0,0,0-.42-.7l-1,.14h-.35v.07a.13.13,0,0,1-.21,0l-1.13.14a.26.26,0,0,1-.07.28c.36.71,1-.7,1.13.35H42.6c-.14-.28-.43-.35-.64-.49v.21c-.21,0-.21-.14-.28-.28H40.41c.22-.07.36.35.5.63l-2,.29-.28-.14v.35h3c.21.35.63.35.78,1.05s-.22-.07-.15.14.36,0,.5-.07l-.21-.42c.42-.77.42.35.91-.07s-.49-.42-.56-.63h.28c.07,0,.14,0,.14.14v-.14h1l.15.14v-.14h.84a.72.72,0,0,1-.28.42c.14-.07.42-.49.49,0s.35-.14.42.14.14-.28.07-.56h.71a.89.89,0,0,1,.07.28c-.07.14-.42-.07-.21.42,0-.63.21.28.35.07s.07-.56.14-.84h1.55c0,.14.07.35-.14.28s.21.07.28-.07-.14.49.14.35V33h.77a1,1,0,0,1-.28.56h.07c.28.28-.35.91.21.77a1.45,1.45,0,0,1,.35-1.26h.36a2.71,2.71,0,0,0,.7.77L50.48,33h.77c0,.21-.21.42-.07.84.56-.84,1.06.42,1.55-.49s-.07-.21.14-.21v-.21h1c.07.14.14.21.21.14s.22.07.29-.21h1.83a.92.92,0,0,0,.91,0h.14c.35.49.35.84.84.91l-.14-.56.5-.21a.17.17,0,0,1,0-.14h2.32V33c.21-.28.35.49.63-.07l.14-.14h.07c.5.14.64.7,1.06.7s-.07.14-.14.28.35-.35.28-.56.28.49.56.49v.85c.42.35.78-.22,1.06-.43s-.71-.49-.92-.49c0-1.55-1-.35-1.19-.84h1.61c.08.28.5.35.15.84s.56,0,1,.49.28-.56.35-1,.35.49.57.14L65.67,33a.36.36,0,0,0,.21-.21h.5v.14c.42-.21.84.21,1.26-.14h.64a3.32,3.32,0,0,1,1,1.54c.78.43.42-1.19,1.41-.14-.14-.07.07-.63,0-.84s.35-.21.56,0l-.28.49c.42.42,1-.07,1.48-.07s0-.49-.28-.63.28-.35.42-.35.14,1,.56,1.19c4.08-.42,8.09,0,12.17-.56v-.28c2.54.63,5.42-.07,8.17-.28v.21c.84-1.27.49,1.48,1.4,0,.64,1.26,1.48,0,2.18.91v-.42c.5,1.06,1.2-.77,1.83,0,.21-.35.36-.84.71-.49s-.07.7.21.35l-.21-.7a.7.7,0,0,1,1,.24l0,0H101l-.14-.28.36-.15h.42l.21.29v-.29h.91a1.83,1.83,0,0,0-.14.57c.42-.28.28,1.12.71.77v-.49c.35-.07.56.21.7.49v-.28c.56-.28.91.35,1.41-.49l.28.28a.34.34,0,0,1,.12-.48h0c.28-.07.56.56.42.84s1,.35,1.9.14.35-.21.28-.7l.28.28c-.07,0,0-.14,0-.21s.14,0,.14.21h.36V34l.28-.42c-.14-.63-.57-.21-.64-.84h.5c.14.14.07.14.07.49s.21.56.56.28v-.28l.42.28c.14.14-.14-.35,0-.56h-1l.35-.14h.77c0,.14.07-.07-.14.14l.56.14c.08.42-.21.56-.07.84,2.61.71,4.23-1.83,6.55.21.35-.42,1.12-.91,1.33-.56l-.14.14c.36.35.57-.56.78,0l.21.7c.14-.14.56-.14.49-.42s.78-.14.71.78a4.39,4.39,0,0,1,1.4-.14.38.38,0,0,1,0-.15c.14-.28.21.57.35.08s-.49-.29-.07-.5.85,0,1.06-.28a.87.87,0,0,1,.35.49c.21-.07.56-.63.28-.77s.71-.42.64.49,1.19-.42,1.68.49a5.78,5.78,0,0,0,2.54-1C120.27,32.23,80,27.87,45.55,31.53Zm-4,1.2H41c-.14-.22-.28-.43-.14-.64s.56.28.91.42Zm3-.29c.14-.21.21-.42.42-.07ZM48.08,32a.6.6,0,0,1,.21-.49l.22.42Zm16.47,1.9c0-.7-.92-.42-.21-.77h0c.07.14.35.56.14.77ZM109,32.8h.36v.14Zm1.9,0c-.07.14,0,.14,0,.21l-.28-.28h.64l.14.28c-.35.07-.42-.14-.57-.21Z" fill="#f0be67"/><g id="fd2b37a7-b08a-4ca9-a4c5-77cd9c2eb709" data-name=" Group 3"><g id="b9b1ff83-d682-48f3-a4cc-d5b2fbe9a51c" data-name=" Group 4"><path id="aaf914b4-3966-4133-b2fb-29b8011dfa0c" data-name=" Path 13" d="M31.13,26.53h0a8.85,8.85,0,0,1,1.26-3.16L32.6,23v-.14c.15-1-1.82-1.27-2.18-1.2h-.14a2.87,2.87,0,0,0-2.39,1.2c-.7,1.19-.49,2-2.25,2.6s-2.39-.07-3.52.21S21,27.45,20.93,28.43s-.22,2.47-1.48,2.75-2.75.14-3.24,2,0,2.25-.56,3.16-2.11,1.2-3.1,1.34a2.12,2.12,0,0,0-2,2.53,4.1,4.1,0,0,0,.14.92h0a2.75,2.75,0,0,0,2.11,2.25,10.44,10.44,0,0,0,3.52-.28,32.67,32.67,0,0,1,5.84-.42c5.77,0,7.46-4.44,8.23-9.43C30.71,31.46,30.63,28.86,31.13,26.53Z" fill="url(#b9e2ab33-d888-4403-a575-26d59dfdb77d)"/></g><path id="bed43263-ab63-4b36-849d-a33b16a9e1e0" data-name=" Compound Path 26" d="M19.17,27.17h-.36L16.07,25.9a1.28,1.28,0,0,0-1.62.21s-4.08,4.58-4.64,5.28a.72.72,0,0,1-1,.28l-.1-.07-2.6-1.55a.39.39,0,0,0-.63.21l-.29,1.41C5.09,32,4.88,31,4.88,31L4.32,28.5c-.14-.84.42-.49.42-.49l3.66.85a.65.65,0,0,0,.49-.14h0l1.34-2.26a1,1,0,0,0,.14-.84L9,21.89c-.28-.63-.7-.63-.7-.63L6.22,21a1.27,1.27,0,0,0-.91.21L3.9,22.59a5.08,5.08,0,0,0-.78,3.31l.22,2.25c2,11.61,3,13.3,6.47,14.07.56.14.7-.49.63-1a6.11,6.11,0,0,1-.14-2.82c.35-.91,2.32-1.12,3.59-1.54s1.12-2.33,1.27-3.87,1.4-2,3-2.4,1.41-2.39,1.62-3.94v-.14l-.21.36A.73.73,0,0,1,19.17,27.17ZM31.27,8.31h0c0-.28-.28-.21-.35-.14l-.64.28c-.49.28-.7.56-.56,1.06s.28.7.21,1.05-.63.07-.77-.07a1.36,1.36,0,0,0-1-.28,2.31,2.31,0,0,0-1,.77c-.14.22-.5.85-.64.15a11.56,11.56,0,0,1-.07-1.55c0-.71-.63-.85-1.26-1.2S24,7.89,24,7.54s.14-.21.42-.14a4.5,4.5,0,0,0,1.27,0h.21a1,1,0,0,0,.91-.78,4.63,4.63,0,0,1,.5-1.33c.28-.36.7.49.77.7a2.29,2.29,0,0,0,.71,1,3.09,3.09,0,0,0,1.61.29h.36a.21.21,0,0,0,.14-.26V7h0C30.28,5.5,29,4.3,26.2,4A16.73,16.73,0,0,0,23.46,4a13.37,13.37,0,0,1-2.75-.21C7.91.5,3.9,4,3.05,4.86c-2,1.9-2.11,5.35-2,6.69a34.32,34.32,0,0,0,1.76,9.14c.07.36.28.92.71.43L3.62,21l.77-.78a2,2,0,0,1,1.06-.56l3.87-.56h.07L13,17.81h0l3-1.41h.28l.63-.14a.44.44,0,0,1,.43.14c.14.28-.5.78-.5.78h0l-2.25,1.76-.63.35h0l-1.9,1a.57.57,0,0,0-.14.78h.07l.7,1.4a1.07,1.07,0,0,0,1.06.64l1.69-.21a1.84,1.84,0,0,1,1.33.42l1.83,1.76c.14.14.64.49,1,.21s2-1.62,1.55-.42A16.09,16.09,0,0,1,24,24.28c2.53-.42,1.2-2.74,2.67-4.15a3.19,3.19,0,0,1,2.19-.63,1.33,1.33,0,0,0,1.26-1.2v-.14a18.86,18.86,0,0,1,.21-2.6C30.71,13.66,31.62,10.7,31.27,8.31ZM9.32,18.3c-.92.35-2.33-.42-3.17-1.76s-.84-2.67.21-2.95,2.6.63,3.38,1.9S10.3,18,9.32,18.3Z" fill="url(#a859c58e-75ec-4d0b-8443-da40400571eb)"/></g><g id="e7d8c352-4973-42bb-8a30-0d7ac700b382" data-name=" Group 5"><path id="b3cccbe6-9a97-49a7-b38e-5a3f0469569d" data-name=" Path 14" d="M53.43,15.63a7.42,7.42,0,0,0-1.83-1.2l-2-.77-2-.63-1.69-.64a3.79,3.79,0,0,1-1.12-.77,1.34,1.34,0,0,1-.36-1,1.77,1.77,0,0,1,.78-1.47,3.86,3.86,0,0,1,2.32-.71,6,6,0,0,1,1.69.21l1.27.5,1.05.49a1.92,1.92,0,0,0,1.76.07,1.67,1.67,0,0,0,.56-.56L55.12,7l-.21-.21a10,10,0,0,0-3.24-2.11,12.5,12.5,0,0,0-8-.21A8.27,8.27,0,0,0,40.91,6a6.55,6.55,0,0,0-1.69,2.25A6.66,6.66,0,0,0,38.66,11a6.48,6.48,0,0,0,.49,2.68,5.81,5.81,0,0,0,1.26,1.83,7.19,7.19,0,0,0,1.83,1.26l2.11.85,2,.63,1.68.63a3.78,3.78,0,0,1,1.13.85,1.44,1.44,0,0,1,.35,1.05,2.25,2.25,0,0,1-.21.92,1.87,1.87,0,0,1-.56.77,3.3,3.3,0,0,1-1.06.57,5,5,0,0,1-1.55.21,6.16,6.16,0,0,1-1.9-.28L43,22.38l-1-.63a2,2,0,0,0-1.12-.35,1.91,1.91,0,0,0-1,.21,2,2,0,0,0-.7.7l-1.41,2.25.21.14a9.45,9.45,0,0,0,1.55,1.13l2,.92,2.18.56a12.92,12.92,0,0,0,2.32.21A12.2,12.2,0,0,0,50,27a8.68,8.68,0,0,0,2.89-1.62,6.93,6.93,0,0,0,1.83-2.46,7.88,7.88,0,0,0,.63-3.1,5.25,5.25,0,0,0-1.83-4.15"/><path id="ac64e1a9-ed4a-4094-a863-6eb3c1752846" data-name=" Path 15" d="M82.63,21.33a3.66,3.66,0,0,0-3.94-.78,3.81,3.81,0,0,0-1.13.78,3.45,3.45,0,0,0-.77,1.12,3.72,3.72,0,0,0,0,2.82,3.45,3.45,0,0,0,.77,1.12,3.47,3.47,0,0,0,2.54,1.06,3.72,3.72,0,0,0,1.4-.28,3.41,3.41,0,0,0,1.13-.78,3.45,3.45,0,0,0,.77-1.12,3.57,3.57,0,0,0,0-2.82,3.45,3.45,0,0,0-.77-1.12"/><path id="a755fa47-b8e3-4750-950b-572ebc0e9c25" data-name=" Path 16" d="M102.75,20.76a1.75,1.75,0,0,0-1.12.36l-.92.7-1.26.63a5.32,5.32,0,0,1-2,.28,4.9,4.9,0,0,1-2.19-.49,4.51,4.51,0,0,1-1.61-1.33,6.6,6.6,0,0,1-1.06-2.26,11.92,11.92,0,0,1-.35-3.09,12.36,12.36,0,0,1,.35-3,6.33,6.33,0,0,1,1-2.18A4.39,4.39,0,0,1,95.29,9a5.51,5.51,0,0,1,2.33-.49,5.85,5.85,0,0,1,1.76.21l1.26.57.92.56a1.7,1.7,0,0,0,1,.28,1.34,1.34,0,0,0,.85-.21l.49-.56,1.55-2.18L105.22,7a11.13,11.13,0,0,0-3.45-2.39,11.4,11.4,0,0,0-4.51-.84,11.89,11.89,0,0,0-4.78.91A10,10,0,0,0,89,7.11a10.63,10.63,0,0,0-2.11,3.73,14.65,14.65,0,0,0-.7,4.65,14.38,14.38,0,0,0,.84,5,11.2,11.2,0,0,0,2.18,3.73,9.33,9.33,0,0,0,3.31,2.32,10.23,10.23,0,0,0,4,.78l2.39-.21a11.81,11.81,0,0,0,2.4-.64,11.26,11.26,0,0,0,2.25-1.19,10.37,10.37,0,0,0,2-1.83l.14-.21L104,21.05a1.41,1.41,0,0,0-1.27-.64"/><path id="f1abe87a-4c4e-4c5e-8dcf-4d6c32f78bc4" data-name=" Compound Path 27" d="M128.29,10.77A10.51,10.51,0,0,0,126,7a10.14,10.14,0,0,0-3.59-2.32,13.58,13.58,0,0,0-9.28,0A10.28,10.28,0,0,0,109.51,7a10.51,10.51,0,0,0-2.32,3.73,13.9,13.9,0,0,0-.85,4.86,14,14,0,0,0,.85,4.92,10.51,10.51,0,0,0,2.32,3.73,9.88,9.88,0,0,0,3.59,2.39,13.46,13.46,0,0,0,9.28,0A9.88,9.88,0,0,0,126,24.28a10.47,10.47,0,0,0,2.25-3.73,14.2,14.2,0,0,0,.78-4.92,14.35,14.35,0,0,0-.78-4.86m-5.34,4.93A9.18,9.18,0,0,1,121.61,21a4.36,4.36,0,0,1-3.87,1.75A4.5,4.5,0,0,1,113.8,21a9.18,9.18,0,0,1-1.27-5.28,9.18,9.18,0,0,1,1.27-5.28,4.43,4.43,0,0,1,3.94-1.76,4.37,4.37,0,0,1,3.87,1.76,9.43,9.43,0,0,1,1.27,5.35"/><path id="bdd058e4-add0-459f-9917-5f8eb0bcd88c" data-name=" Path 17" d="M74.61,4.23a1.85,1.85,0,0,0-1.13.35,1.78,1.78,0,0,0-.63.85l-4.43,12a21.42,21.42,0,0,0-.64,2.11l-.14.56-.14-.56a9.68,9.68,0,0,0-.63-2l-4.29-12a1.79,1.79,0,0,0-.71-.85,2,2,0,0,0-1.19-.35H55.75L64.48,26h0a1.78,1.78,0,0,0,.63.85,1.92,1.92,0,0,0,1.06.35h2.88a1.92,1.92,0,0,0,1.06-.35,1.82,1.82,0,0,0,.56-.85h0L79.32,4.23Z"/></g></g></svg>