<?xml version="1.0" encoding="utf-8"?>
<!-- Generator: Adobe Illustrator 24.1.0, SVG Export Plug-In . SVG Version: 6.00 Build 0)  -->
<svg version="1.1" id="Layer_1" xmlns="http://www.w3.org/2000/svg" xmlns:xlink="http://www.w3.org/1999/xlink" x="0px" y="0px"
	 viewBox="0 0 1800 1200" style="enable-background:new 0 0 1800 1200;" xml:space="preserve">
<style type="text/css">
	.st0{fill:#6DAE42;}
	.st1{fill:#252525;}
	.st2{fill:#333333;}
	.st3{fill:#6CAD3F;}
	.st4{fill:#F4F4F4;}
	.st5{fill:#F1F1F1;}
</style>
<path class="st0" d="M674.93,628.68"/>
<path class="st1" d="M869.14,503.66l-4.08,4.08C866.42,506.72,868.12,505.36,869.14,503.66z M865.06,664.85
	c1.36,1.36,2.38,2.38,4.08,3.06C867.45,666.89,866.42,665.53,865.06,664.85z"/>
<g>
	<path class="st2" d="M717.15,528.15c43.18-72.09,86.37-144.18,130.91-218.99c19.04,29.24,36.73,55.77,54.75,82.29
		c6.11-7.48,10.88-13.6,17.34-22.11c34.01,56.44,66.99,111.54,100.31,166.62c-8.16,0-15.98,0-24.14-0.34
		c-19.72-0.67-38.43,0-55.43,10.88c-9.52,6.11-18.7,12.59-28.91,18.7c-10.88-7.14-20.75-13.95-31.29-21.42
		c-20.06-13.6-42.51-22.78-66.31-24.14c-28.22-1.7-57.13-3.74-84.68,7.14C725.64,529.17,721.23,528.15,717.15,528.15L717.15,528.15z
		 M807.26,409.13c9.18-4.42,18.7-9.18,27.88-13.6c7.48,8.5,14.28,15.98,22.11,24.83c4.08-9.52,7.48-17.34,10.88-24.83
		c8.84,2.72,16.32,5.78,24.14,8.16c-13.6-23.47-27.2-45.23-44.2-67.33c-15.64,25.84-29.24,48.63-43.18,71.08
		c-0.67,1.36-1.7,2.38-2.38,3.74C804.19,410.15,805.55,409.82,807.26,409.13z M911.99,429.88c1.36,7.14,2.03,13.26,3.74,24.14
		c5.1-8.84,8.5-13.6,10.88-18.03c9.86,4.75,16.32,8.16,23.12,11.22c1.36-0.67,2.03-2.03,3.06-2.72
		c-10.88-17.68-21.42-35.37-33.66-55.08c-8.5,13.26-15.98,24.48-24.14,37.07C901.46,427.83,905.87,428.86,911.99,429.88z"/>
	<path class="st3" d="M717.15,528.15c4.08,0,8.5,0.67,11.9-0.67c27.55-10.88,56.44-8.84,84.68-7.14
		c24.14,1.36,46.25,10.88,66.31,24.14c10.54,6.8,20.75,13.95,31.29,21.42c9.86-6.46,19.04-12.92,28.91-18.7
		c17.34-10.88,36.38-11.56,55.43-10.88c8.16,0.34,15.98,0.34,24.14,0.34c7.14,10.54,13.95,20.75,22.78,33.32
		c-58.49,35.02-115.95,69.03-174.1,104.39c-58.83-35.02-116.64-69.37-176.82-104.74C700.48,555.02,708.99,542.09,717.15,528.15z"/>
	<path class="st0" d="M865.75,705.32c55.43-32.99,110.18-64.95,166.62-98.27c-4.75,15.98-138.74,208.79-167.98,242.11
		c-56.44-79.57-111.87-158.8-167.98-238.03c0.67-1.36,1.7-2.03,2.38-3.06c28.91,13.6,55.08,31.96,82.63,48.28
		C809.98,671.64,837.18,687.97,865.75,705.32L865.75,705.32z"/>
	<path class="st4" d="M805.22,407.44c13.6-22.44,27.2-45.23,43.18-71.08c17.34,22.11,30.94,43.87,43.87,66.99
		c-7.48-2.38-15.31-5.1-24.14-8.16c-3.74,8.16-6.8,15.64-10.88,24.83c-8.16-8.84-14.62-16.32-22.11-24.83
		c-9.52,4.42-18.7,9.18-27.88,13.6C806.24,408.79,805.9,407.77,805.22,407.44z"/>
	<path class="st5" d="M911.99,429.88c-6.11-1.36-10.54-2.03-17.34-3.06c8.16-12.59,15.64-24.14,24.14-37.07
		c11.9,19.72,22.78,37.4,33.66,55.08c-1.36,0.67-2.03,2.03-3.06,2.72c-6.8-3.06-13.6-6.46-23.12-11.22
		c-2.38,4.42-5.44,9.18-10.88,18.03C914.03,443.14,912.67,437.02,911.99,429.88z"/>
	<path class="st4" d="M807.26,409.13c-1.36,0.34-2.72,1.36-4.08,1.7c0.67-1.36,1.7-2.38,2.38-3.74
		C805.9,407.77,806.24,408.79,807.26,409.13z"/>
</g>
<g>
	<g>
		<path class="st2" d="M204.48,970.78c-2.26,6.51-4.53,13-6.75,19.52c-11.69,34.36-23.37,68.7-34.97,103.09
			c-0.83,2.45-1.84,3.62-4.61,3.59c-9.16-0.15-18.35-0.15-27.51,0c-2.88,0.04-4.06-1.08-4.93-3.76
			c-11.38-34.62-22.92-69.19-34.38-103.78c-7.15-21.55-14.27-43.12-21.57-65.23c1.61-0.23,2.94-0.57,4.27-0.59
			c8.39-0.04,16.75,0.13,25.14-0.09c3.23-0.09,4.36,1.33,5.27,4.08c13.24,40.66,26.54,81.28,39.86,121.9
			c0.36,1.1,0.87,2.16,2.52,3.34c1.95-5.54,3.97-11.08,5.86-16.66c12.31-36.14,24.63-72.28,36.83-108.46
			c1.02-3.04,2.35-4.33,5.65-4.21c6.94,0.25,13.91,0.19,20.87,0.02c3.26-0.08,5.05,0.83,6.15,4.23
			c12.9,39.44,25.97,78.81,39.03,118.2c0.85,2.58,1.86,5.12,2.79,7.68c0.44,0,0.87,0,1.31,0c2.05-6.01,4.14-12.03,6.17-18.04
			c12.05-35.9,24.11-71.79,36.01-107.74c1.01-3.05,2.3-4.42,5.58-4.34c7.42,0.17,14.86,0.04,22.29,0.08c1.2,0,2.41,0.34,4.08,0.59
			c-4.67,14.17-9.2,27.93-13.75,41.68c-13.68,41.34-27.32,82.68-41.13,123.98c-2.77,8.25-0.82,6.94-9.66,7.04
			c-7.59,0.08-15.18-0.17-22.77,0.09c-3.32,0.11-4.63-1.08-5.63-4.14c-12.86-38.95-25.86-77.86-38.84-116.77
			c-0.59-1.76-1.29-3.49-1.94-5.24C205.31,970.82,204.9,970.8,204.48,970.78z"/>
		<path class="st2" d="M593.77,923.92c0.89-0.21,1.35-0.4,1.8-0.4c28.61,0.25,57.24-0.27,85.79,1.02
			c24.15,1.1,45.44,10.24,61.98,28.69c10.66,11.88,16.9,25.88,19.26,41.51c2.86,19.01,1.12,37.51-7.51,54.98
			c-10.21,20.7-26.92,33.83-48.42,41.32c-11.74,4.1-23.83,5.94-36.27,5.86c-24.02-0.13-48.06-0.04-72.08-0.04c-1.4,0-2.81,0-4.53,0
			C593.77,1039.1,593.77,981.65,593.77,923.92z M625.89,950.88c0,39.94,0,79.04,0,118.29c0.97,0.19,1.71,0.47,2.45,0.47
			c16.58-0.13,33.18,0.23,49.73-0.61c11.67-0.59,22.44-4.88,31.82-12.12c13.93-10.76,20.36-25.23,21.29-42.55
			c1.54-28.74-12.2-53.6-42.35-60.48c-12.58-2.88-25.97-2.3-39.01-2.92C641.98,950.57,634.09,950.88,625.89,950.88z"/>
		<path class="st2" d="M1341.62,1096.45c0-57.66,0-114.99,0-172.34c0.59-0.23,1.02-0.53,1.44-0.53c28.76,0.23,57.54-0.25,86.25,0.99
			c22.56,0.97,42.74,9.22,59,25.63c16.66,16.81,23.51,37.53,23.28,60.67c-0.3,32.58-13.85,57.9-42.8,73.97
			c-12.73,7.08-26.6,11.4-41.09,11.72c-28.12,0.61-56.25,0.27-84.39,0.3C1342.87,1096.85,1342.43,1096.64,1341.62,1096.45z
			 M1373.87,1069.15c18.06,0,35.67,1.12,53.08-0.27c27.11-2.16,46.41-20.43,51.19-46.18c6.36-34.23-11.48-63.96-44.38-69.44
			c-19.28-3.23-39.33-1.65-59.04-2.22c-0.25,0-0.49,0.36-0.85,0.65C1373.87,990.74,1373.87,1029.88,1373.87,1069.15z"/>
		<path class="st2" d="M1308.19,1096.85c-11.74,0-22.43,0.11-33.11-0.13c-1.29-0.04-2.81-1.78-3.74-3.07
			c-10.28-14.61-20.51-29.24-30.62-43.94c-1.59-2.31-3.19-3.32-6.13-3.26c-12.33,0.21-24.66,0.09-37,0.09c-1.54,0-3.07,0-5.05,0
			c0,16.81,0,33.18,0,49.97c-10.89,0-21.34,0-32.04,0c0-57.56,0-115.01,0-172.65c0.97-0.13,1.73-0.34,2.49-0.34
			c25.29,0.11,50.58-0.06,75.87,0.47c14.23,0.28,27.89,3.76,40.09,11.48c18.82,11.93,26.75,29.58,26.24,51.41
			c-0.57,24.09-11.59,41.44-33.6,51.6c-0.83,0.38-1.59,0.93-2.96,1.73C1281.66,1058.89,1294.56,1077.35,1308.19,1096.85z
			 M1192.78,1019.9c1.56,0,2.66,0,3.74,0c13.26-0.08,26.52-0.04,39.78-0.3c3.59-0.08,7.21-0.87,10.72-1.69
			c16.2-3.72,25.71-15.69,25.78-32.27c0.08-16.87-9.01-30.32-25.12-32.52c-18-2.45-36.37-2.18-54.89-3.11
			C1192.78,974.04,1192.78,996.7,1192.78,1019.9z"/>
		<path class="st2" d="M1137.85,1096.91c-10.85,0-20.95,0.11-31.06-0.15c-1.33-0.04-3.15-1.8-3.79-3.21
			c-4.88-10.8-9.62-21.65-14.15-32.58c-1.21-2.92-2.73-4-5.96-3.98c-26.24,0.13-52.48,0.11-78.73,0c-2.98-0.02-4.38,0.89-5.52,3.7
			c-4.46,10.97-9.16,21.84-13.93,32.67c-0.61,1.39-2.11,3.32-3.24,3.36c-10.21,0.27-20.43,0.15-31.36,0.15
			c5.39-12.05,10.45-23.41,15.56-34.74c20.15-44.79,40.33-89.57,60.37-134.4c1.42-3.19,3.07-4.63,6.66-4.52
			c7.59,0.25,15.18,0.21,22.77,0.02c3.17-0.08,4.82,1.1,6.09,3.97c17.7,39.48,35.52,78.91,53.29,118.35
			c6.81,15.12,13.64,30.22,20.45,45.34C1136.09,1092.58,1136.77,1094.33,1137.85,1096.91z M1043.68,955.68
			c-11.08,25.95-21.59,50.58-32.35,75.77c21.91,0,42.93,0,64.92,0C1065.38,1006.16,1054.79,981.56,1043.68,955.68z"/>
		<path class="st2" d="M1542.44,1054.07c21.46,14.38,44.19,20.81,69.31,17.78c6.83-0.82,13.17-2.83,18.9-6.92
			c9.37-6.68,10.66-22.58-1.16-29.48c-9.62-5.62-20.15-8.01-30.62-10.95c-11.99-3.36-24.19-6.32-35.76-10.83
			c-15.39-6.01-25.63-17.02-27.53-34.3c-1.99-18.12,3.89-33.03,18.44-44.09c11.12-8.46,24.04-12.12,37.87-13.39
			c21.67-1.97,42.55,0.38,62.38,9.71c8.77,4.12,8.75,4.15,5.12,13.07c-2.09,5.12-4.19,10.23-6.32,15.31
			c-0.11,0.28-0.4,0.47-0.78,0.93c-5.35-2.33-10.66-4.99-16.22-7c-16.98-6.17-34.42-8.77-51.95-3.05
			c-5.07,1.65-10.34,5.35-13.49,9.62c-7.72,10.45-3.41,22.88,10.02,28.06c11.42,4.4,23.53,7.1,35.35,10.42
			c13.07,3.68,26.11,7.02,37.51,15.16c21.99,15.69,20.4,49.93,2.88,66.46c-12.98,12.26-28.89,17.4-46.08,18.55
			c-22.05,1.48-43.54-1.57-63.75-11.1c-4.4-2.07-8.52-4.82-12.52-7.61c-1.02-0.72-1.97-3.07-1.56-4.1
			C1535.57,1068.92,1538.98,1061.66,1542.44,1054.07z"/>
		<path class="st2" d="M948.36,948.96c-8.18,7.66-14.84,13.91-21.97,20.58c-16.89-17.61-37.43-23.05-60.75-18.59
			c-14.34,2.73-26.16,9.94-35.27,21.44c-17.93,22.65-15.58,60.27,4.65,81.16c19.47,20.09,63.75,27.55,91.69-2.5
			c6.7,6.37,13.39,12.75,20.32,19.33c-6.15,7.84-13.51,13.87-22.03,17.93c-35.78,17.04-71.28,16.03-103.78-6.87
			c-29.86-21.02-39.84-51.98-33.88-87.31c6.22-36.96,29.48-60.29,64.94-69.5c31.66-8.23,62.15-3.85,88.18,18.44
			C942.84,945.11,945.5,946.84,948.36,948.96z"/>
		<path class="st2" d="M445.41,923.86c10.78,0,21.12,0,31.93,0c0,48.66,0,96.95,0,145.78c30.26,0,60.05,0,90.19,0
			c0,9.16,0,17.78,0,26.83c-40.54,0-81.18,0-122.12,0C445.41,1039.04,445.41,981.59,445.41,923.86z"/>
		<path class="st2" d="M366.2,923.69c10.62,0,20.85,0,31.47,0c0,57.69,0,115.2,0,172.97c-10.49,0-20.83,0-31.47,0
			C366.2,1039.08,366.2,981.65,366.2,923.69z"/>
	</g>
</g>
</svg>
