<svg xmlns="http://www.w3.org/2000/svg" width="128" height="64" viewBox="0 0 128 64">
  <g fill="none" fill-rule="evenodd">
    <rect width="128" height="64"/>
    <g fill-rule="nonzero" transform="translate(9 17)">
      <path fill="#005A9E" d="M33,27 L33,9 L27,9 L27,27 L21,27 L21,0 L27,0 L27,6 L36,6 L36,9 L39,9 L39,27 L33,27 Z M48,12 L48,27 L42,27 L42,6 L48,6 L48,9 L51,9 L51,6 L57,6 L57,12 L48,12 Z M78,21 L78,24 L75,24 L75,21 L78,21 Z M63,27 L63,24 L60,24 L60,9 L63,9 L63,6 L75,6 L75,9 L78,9 L78,18 L66,18 L66,24 L75,24 L75,27 L63,27 Z M72,15 L72,9 L66,9 L66,15 L72,15 Z M90,3 L90,6 L93,6 L93,9 L90,9 L90,27 L84,27 L84,9 L81,9 L81,6 L84,6 L84,3 L87,3 L87,0 L96,0 L96,3 L90,3 Z M105,12 L105,15 L108,15 L108,18 L111,18 L111,24 L108,24 L108,27 L99,27 L99,24 L105,24 L105,21 L102,21 L102,18 L99,18 L99,15 L96,15 L96,9 L99,9 L99,6 L108,6 L108,9 L102,9 L102,12 L105,12 Z M96,21 L99,21 L99,24 L96,24 L96,21 Z M111,12 L108,12 L108,9 L111,9 L111,12 Z"/>
      <path fill="#F80" d="M3,27 L3,24 L0,24 L0,18 L3,18 L3,15 L12,15 L12,9 L3,9 L3,6 L15,6 L15,9 L18,9 L18,27 L3,27 Z M6,18 L6,24 L12,24 L12,18 L6,18 Z M0,12 L0,9 L3,9 L3,12 L0,12 Z"/>
    </g>
  </g>
</svg>
