<svg width="222" height="223" viewBox="0 0 222 223" xmlns="http://www.w3.org/2000/svg" xmlns:xlink="http://www.w3.org/1999/xlink"><use xlink:href="#path0_fill" fill="#844FE1"/><defs><path id="path0_fill" fill-rule="evenodd" d="M153 11c-11-7-23-11-36-11-7 0-14 1-20 3-13 0-25 3-37 9-6 4-11 8-16 13-10 6-20 15-27 26-3 6-5 12-7 19C3 80 0 93 0 106c0 7 1 14 3 20-1 12 2 25 9 36 3 6 7 12 12 16 6 11 15 21 26 27 6 4 13 6 19 8 11 6 23 10 36 10 7 0 14-1 20-3 13 1 25-2 37-9 6-3 11-8 16-13 11-5 20-14 27-26 3-6 6-12 7-19 7-10 10-22 10-36 0-7-1-13-3-20 1-12-2-25-9-36-3-6-7-11-12-16-6-11-15-20-26-27-6-3-13-6-19-7zm61 131c1-25-11-49-34-62-15-9-31-11-46-9 13 0 27 2 39 9 32 19 43 61 25 93-4 6-8 12-13 16 13-21 15-48 2-71-9-14-21-24-36-30 12 6 22 15 29 27 19 33 8 74-25 93-6 4-12 6-19 8 22-12 37-34 37-61 0-16-6-32-16-43 8 10 12 23 12 37 0 38-30 68-68 68-7 0-14-1-20-3 25 1 49-11 62-34 8-14 11-30 8-45 1 13-2 26-9 38-18 33-60 44-92 25-7-3-12-8-16-13 20 14 48 15 70 2 15-8 25-21 30-35-5 12-15 22-27 29-32 18-74 7-92-25-4-6-6-13-8-19 11 22 34 37 61 37 16 0 31-6 43-16-11 7-24 12-38 12-37 0-68-31-68-68 0-7 1-14 3-20-1 24 11 49 34 62 15 8 31 10 46 8-13 1-26-2-39-9-32-19-43-60-24-93 3-6 7-11 12-16-13 21-15 48-2 71 9 14 21 25 36 30-12-6-22-15-29-27-19-33-8-74 25-93 6-3 12-6 19-7-22 11-37 34-37 60 0 17 6 32 16 44-8-11-12-24-12-38 0-38 31-68 68-68 7 0 14 1 20 3-24-1-49 11-62 34-8 14-11 30-8 45-1-12 2-26 9-38 19-32 60-44 93-25 6 4 11 8 15 13-20-13-48-15-70-2-15 8-25 21-30 35 6-11 15-21 27-28 32-19 74-8 93 25 3 6 6 12 7 18-11-21-34-36-60-36-17 0-32 5-44 15 11-7 24-11 38-11 37 0 68 30 68 68 0 7-1 13-3 20z"/></defs></svg>