<svg viewBox="0 0 74 81" xmlns="http://www.w3.org/2000/svg" fill-rule="evenodd" clip-rule="evenodd" stroke-linejoin="round" stroke-miterlimit="1.414"><path d="M7.785 60.156L0 80.603h2.11l2.196-6.045h8.769l2.252 6.045h2.11l-7.74-20.447H7.785zM4.947 72.833L8.64 62.652h.057l3.736 10.181H4.947zm26.133 5.56h-.056l-4.491-12.391H21.18v-4.277l-1.825.599v3.678H16.79V67.6h2.566v9.224c0 2.719 1.179 4.078 3.536 4.078a4.521 4.521 0 002.053-.47v-1.611a2.95 2.95 0 01-1.64.513 1.907 1.907 0 01-1.64-.656 3.663 3.663 0 01-.484-2.139V67.6l3.935-.008 4.995 13.011h1.74l5.817-14.601h-1.953L31.08 78.393zM44.547 65.66a6.097 6.097 0 00-3.393.991 6.674 6.674 0 00-2.381 2.752 8.773 8.773 0 00-.856 3.885 8.424 8.424 0 001.725 5.625 5.882 5.882 0 004.734 2.032 8.503 8.503 0 005.076-1.497v-1.796a7.428 7.428 0 01-4.663 1.725 4.558 4.558 0 01-3.628-1.518 6.352 6.352 0 01-1.348-4.228h10.552v-.913a7.995 7.995 0 00-1.526-5.183 5.23 5.23 0 00-4.292-1.875zm-4.691 6.374a6.11 6.11 0 011.547-3.522 4.15 4.15 0 013.1-1.269 3.554 3.554 0 012.895 1.255 5.56 5.56 0 011.085 3.536h-8.627zM59.88 65.96a3.842 3.842 0 00-1.424-.228 3.6 3.6 0 00-2.375.877 5.29 5.29 0 00-1.575 2.516h-.057v-3.123h-1.811v14.601h1.81v-7.144a9.711 9.711 0 01.493-3.172 4.876 4.876 0 011.333-2.16 2.9 2.9 0 011.953-.728 2.732 2.732 0 011.654.471v-1.91zm12.203 1.725a6.396 6.396 0 00-5.011-2.025 6.907 6.907 0 00-5.311 2.089 8.006 8.006 0 00-1.947 5.682 7.69 7.69 0 001.91 5.468c2.859 2.734 7.433 2.708 10.26-.057a7.927 7.927 0 001.918-5.554 8.092 8.092 0 00-1.82-5.603zm-1.404 10.123a4.67 4.67 0 01-3.75 1.569 4.784 4.784 0 01-3.821-1.64 6.41 6.41 0 01-1.411-4.334 6.686 6.686 0 011.418-4.528 4.836 4.836 0 013.843-1.632 4.624 4.624 0 013.749 1.561 6.835 6.835 0 011.312 4.513 6.719 6.719 0 01-1.34 4.491zM45.437 0h-14.9l-20.39 53.846h16.297L45.437 0z" fill="#0078d7" fill-rule="nonzero"/><path d="M49.53 53.846h16.296L45.436 0 39.21 24.366l10.32 29.48z" fill="#0078d7" fill-rule="nonzero"/></svg>