<svg width="460" height="104" viewBox="0 0 460 104" fill="none" xmlns="http://www.w3.org/2000/svg"><mask id="a" maskUnits="userSpaceOnUse" x="0" y="0" width="460" height="104"><path fill-rule="evenodd" clip-rule="evenodd" d="M460 0H0v104h460V0zM271 16.5L183.5 45v-6.5l48-16 39.5-6z" fill="#000"/></mask><g mask="url(#a)"><path d="M49.092 91l-5.225-14.502H19.356L14.374 91H.264l28.515-72.51h5.567L63.106 91H49.091zm-17.53-50.635L22.97 66.781h17.187l-8.593-26.416zm72.12 50.684v-4.395c-1.726 1.465-4.102 2.718-7.13 3.76-3.027 1.042-5.81 1.563-8.349 1.563-12.142 0-18.213-6.446-18.213-19.336V38.705h12.207v33.008c0 6.706 3.011 10.059 9.034 10.059a14.68 14.68 0 0 0 7.714-2.149c2.377-1.432 3.955-3.092 4.737-4.98V38.705h12.207V91.05h-12.207zM162.715 91v-3.174c-1.009 1.107-2.718 2.084-5.127 2.93a23.185 23.185 0 0 1-7.471 1.22c-7.291 0-13.037-2.31-17.236-6.933-4.167-4.622-6.25-11.068-6.25-19.336 0-8.268 2.392-14.99 7.178-20.166 4.817-5.208 10.839-7.813 18.066-7.813 3.971 0 7.585.814 10.84 2.442V19.223l12.207-2.93V91h-12.207zm0-39.795c-2.604-2.083-5.322-3.125-8.154-3.125-4.883 0-8.643 1.498-11.28 4.492-2.636 2.962-3.955 7.227-3.955 12.793 0 10.873 5.241 16.309 15.723 16.309 1.172 0 2.604-.342 4.297-1.026 1.725-.716 2.848-1.432 3.369-2.148V51.205zm34.033-32.764c1.953 0 3.613.7 4.981 2.1 1.399 1.367 2.099 3.027 2.099 4.98 0 1.954-.7 3.63-2.099 5.03-1.368 1.367-3.028 2.05-4.981 2.05-1.953 0-3.63-.683-5.029-2.05-1.367-1.4-2.051-3.076-2.051-5.03 0-1.953.684-3.613 2.051-4.98 1.399-1.4 3.076-2.1 5.029-2.1zM190.449 91V48.715h-6.689v-10.01h19.043V91h-12.354zm28.467-42.48h-6.055v-9.815h6.055V28.061l12.207-4.493v15.137h14.356v9.815h-14.356v22.9c0 3.743.586 6.396 1.758 7.959 1.172 1.53 3.223 2.295 6.152 2.295 2.93 0 5.664-.798 8.203-2.393v11.23c-2.832.977-6.868 1.466-12.109 1.466-5.208 0-9.212-1.465-12.012-4.395-2.799-2.962-4.199-7.161-4.199-12.598V48.52zm39.893-29.297l12.207-2.93v58.789c0 6.445 1.92 10.287 5.761 11.524-1.888 3.58-5.11 5.37-9.668 5.37-5.533 0-8.3-3.84-8.3-11.523v-61.23zm74.072 49.365h-37.354c.228 4.167 1.661 7.406 4.297 9.717 2.637 2.31 6.185 3.466 10.645 3.466 5.566 0 9.798-1.448 12.695-4.345l4.736 9.326c-4.296 3.483-10.709 5.225-19.238 5.225-7.975 0-14.29-2.328-18.945-6.983-4.623-4.687-6.934-11.214-6.934-19.58 0-8.236 2.539-14.909 7.617-20.02 5.111-5.11 11.231-7.666 18.36-7.666 7.584 0 13.672 2.263 18.261 6.788 4.59 4.524 6.885 10.286 6.885 17.285 0 1.497-.342 3.76-1.025 6.787zm-36.914-9.18h25.683c-.846-7.65-5.078-11.474-12.695-11.474-6.966 0-11.295 3.825-12.988 11.474zm44.531 28.223l4.346-9.717c3.646 2.897 7.763 4.346 12.353 4.346 4.753 0 7.129-1.693 7.129-5.078 0-1.986-.716-3.614-2.148-4.883-1.433-1.27-4.216-2.767-8.35-4.492-9.017-3.744-13.525-8.985-13.525-15.723 0-4.525 1.725-8.04 5.176-10.547 3.45-2.539 7.861-3.809 13.232-3.809 5.436 0 10.547 1.221 15.332 3.663l-3.516 9.472c-2.669-2.278-6.38-3.418-11.132-3.418-4.265 0-6.397 1.693-6.397 5.078 0 1.335.7 2.54 2.1 3.614 1.399 1.074 4.394 2.523 8.984 4.345 4.59 1.79 7.894 3.972 9.912 6.543 2.018 2.572 3.027 5.68 3.027 9.327 0 4.85-1.806 8.675-5.419 11.474-3.581 2.767-8.464 4.15-14.649 4.15-3.483 0-6.282-.292-8.398-.878-2.084-.554-4.769-1.71-8.057-3.467zm43.066 0l4.346-9.717c3.646 2.897 7.764 4.346 12.354 4.346 4.752 0 7.129-1.693 7.129-5.078 0-1.986-.717-3.614-2.149-4.883-1.432-1.27-4.215-2.767-8.349-4.492-9.017-3.744-13.526-8.985-13.526-15.723 0-4.525 1.725-8.04 5.176-10.547 3.45-2.539 7.861-3.809 13.232-3.809 5.437 0 10.547 1.221 15.332 3.663l-3.515 9.472c-2.67-2.278-6.38-3.418-11.133-3.418-4.264 0-6.397 1.693-6.397 5.078 0 1.335.7 2.54 2.1 3.614 1.4 1.074 4.395 2.523 8.984 4.345 4.59 1.79 7.894 3.972 9.913 6.543 2.018 2.572 3.027 5.68 3.027 9.327 0 4.85-1.807 8.675-5.42 11.474-3.581 2.767-8.464 4.15-14.648 4.15-3.484 0-6.283-.292-8.399-.878-2.083-.554-4.769-1.71-8.057-3.467zm48.194-3.028c0-2.44.846-4.508 2.539-6.2 1.725-1.726 3.808-2.589 6.25-2.589 2.441 0 4.508.863 6.201 2.588 1.725 1.693 2.588 3.76 2.588 6.201 0 2.442-.863 4.525-2.588 6.25-1.693 1.726-3.76 2.588-6.201 2.588-2.442 0-4.525-.862-6.25-2.588-1.693-1.725-2.539-3.808-2.539-6.25z" fill="#020202"/></g></svg>