<svg width="450" height="78" viewBox="0 0 450 78" fill="none" xmlns="http://www.w3.org/2000/svg"><path fill-rule="evenodd" clip-rule="evenodd" d="M43.867 60.498L49.092 75h14.014L34.346 2.49h-5.567L.264 75h14.111l4.98-14.502h24.512zM22.97 50.781l8.593-26.416 8.594 26.416H22.97zm80.713 19.873v4.395h12.207V22.705h-12.207v35.938c-.782 1.888-2.36 3.548-4.737 4.98a14.678 14.678 0 01-7.714 2.149c-6.023 0-9.034-3.353-9.034-10.06V22.706H69.99v33.936c0 12.89 6.071 19.336 18.213 19.336 2.54 0 5.322-.521 8.35-1.563 3.027-1.042 5.403-2.295 7.129-3.76zm59.033 1.172V75h12.207V.293l-12.207 2.93V24.17c-3.255-1.628-6.869-2.442-10.84-2.442-7.227 0-13.249 2.605-18.066 7.813-4.786 5.176-7.178 11.898-7.178 20.166s2.083 14.714 6.25 19.336c4.199 4.622 9.945 6.934 17.236 6.934a23.18 23.18 0 007.471-1.221c2.409-.847 4.118-1.823 5.127-2.93zm-8.154-39.746c2.832 0 5.55 1.042 8.154 3.125V62.5c-.521.716-1.644 1.432-3.369 2.148-1.693.684-3.125 1.026-4.297 1.026-10.482 0-15.723-5.436-15.723-16.309 0-5.566 1.319-9.83 3.955-12.793 2.637-2.995 6.397-4.492 11.28-4.492zM201.73 4.541c-1.368-1.4-3.028-2.1-4.981-2.1-1.953 0-3.63.7-5.029 2.1-1.367 1.367-2.051 3.027-2.051 4.98 0 1.954.684 3.63 2.051 5.03 1.399 1.367 3.076 2.05 5.029 2.05 1.953 0 3.613-.683 4.981-2.05 1.399-1.4 2.099-3.076 2.099-5.03 0-1.953-.7-3.613-2.099-4.98zm-11.28 28.174V75h12.354V22.713l-19.043 6.202v3.8h6.689zm68.36-28.244L271 .5l-2.307.35 2.323-.557v58.789c0 6.445 1.92 10.286 5.761 11.524-1.888 3.58-5.11 5.37-9.668 5.37-5.533 0-8.3-3.84-8.3-11.523V4.471zm-39.893 12.994l12.207-3.976v9.216h14.356v9.815h-14.356v22.9c0 3.743.586 6.396 1.758 7.959 1.172 1.53 3.223 2.295 6.152 2.295 2.93 0 5.664-.798 8.203-2.393v11.23c-2.832.977-6.868 1.466-12.109 1.466-5.208 0-9.212-1.465-12.012-4.395-2.799-2.962-4.199-7.161-4.199-12.598V32.52h-6.055v-9.814h6.055v-5.24zm76.611 35.123h37.354c.683-3.028 1.025-5.29 1.025-6.787 0-6.999-2.295-12.76-6.885-17.285-4.589-4.525-10.677-6.787-18.261-6.787-7.129 0-13.249 2.555-18.36 7.666-5.078 5.11-7.617 11.783-7.617 20.02 0 8.365 2.311 14.892 6.934 19.58 4.655 4.654 10.97 6.982 18.945 6.982 8.529 0 14.942-1.742 19.238-5.225l-4.736-9.326c-2.897 2.897-7.129 4.346-12.695 4.346-4.46 0-8.008-1.156-10.645-3.467-2.636-2.312-4.069-5.55-4.297-9.717zm26.123-9.18h-25.683c1.693-7.65 6.022-11.474 12.988-11.474 7.617 0 11.849 3.824 12.695 11.474zm23.194 18.506l-4.346 9.717c3.288 1.758 5.973 2.913 8.057 3.467 2.116.586 4.915.879 8.398.879 6.185 0 11.068-1.384 14.649-4.15 3.613-2.8 5.419-6.625 5.419-11.475 0-3.646-1.009-6.755-3.027-9.327-2.018-2.571-5.322-4.752-9.912-6.543-4.59-1.822-7.585-3.271-8.984-4.345-1.4-1.075-2.1-2.279-2.1-3.614 0-3.385 2.132-5.078 6.397-5.078 4.752 0 8.463 1.14 11.132 3.418l3.516-9.472c-4.785-2.442-9.896-3.662-15.332-3.662-5.371 0-9.782 1.269-13.232 3.808-3.451 2.507-5.176 6.022-5.176 10.547 0 6.738 4.508 11.98 13.525 15.723 4.134 1.725 6.917 3.222 8.35 4.492 1.432 1.27 2.148 2.897 2.148 4.883 0 3.385-2.376 5.078-7.129 5.078-4.59 0-8.707-1.449-12.353-4.346zm43.066 0l-4.346 9.717c3.288 1.758 5.974 2.913 8.057 3.467 2.116.586 4.915.879 8.399.879 6.184 0 11.067-1.384 14.648-4.15 3.613-2.8 5.42-6.625 5.42-11.475 0-3.646-1.009-6.755-3.027-9.327-2.019-2.571-5.323-4.752-9.913-6.543-4.589-1.822-7.584-3.271-8.984-4.345-1.4-1.075-2.1-2.279-2.1-3.614 0-3.385 2.133-5.078 6.397-5.078 4.753 0 8.463 1.14 11.133 3.418l3.515-9.472c-4.785-2.442-9.895-3.662-15.332-3.662-5.371 0-9.782 1.269-13.232 3.808-3.451 2.507-5.176 6.022-5.176 10.547 0 6.738 4.509 11.98 13.526 15.723 4.134 1.725 6.917 3.222 8.349 4.492 1.432 1.27 2.149 2.897 2.149 4.883 0 3.385-2.377 5.078-7.129 5.078-4.59 0-8.708-1.449-12.354-4.346zm46.387.488c-1.693 1.693-2.539 3.76-2.539 6.201 0 2.442.846 4.525 2.539 6.25 1.725 1.726 3.808 2.588 6.25 2.588 2.441 0 4.508-.862 6.201-2.588 1.725-1.725 2.588-3.808 2.588-6.25 0-2.44-.863-4.508-2.588-6.2-1.693-1.726-3.76-2.588-6.201-2.588-2.442 0-4.525.862-6.25 2.587z" fill="#020202"/></svg>