<svg width="369" height="369" viewBox="0 0 369 369" xmlns="http://www.w3.org/2000/svg"><g fill="none" fill-rule="evenodd"><path d="M81.488 337.633C110.868 357.439 146.259 369 184.348 369c101.812 0 184.348-82.603 184.348-184.5S286.16 0 184.348 0C82.535 0 0 82.603 0 184.5c0 38.12 11.551 73.54 31.342 102.945L0 369l81.488-31.367z" fill="#FB5"/><path d="M143.446 262.913h-74.37V97.167h73.107c31.102 0 50.613 15.965 50.613 41.35 0 18.148-13.543 33.31-31.102 35.952v.919c22.494 1.723 39.02 18.148 39.02 40.086 0 29.175-21.92 47.439-57.268 47.439zm-39.71-139.902v43.073h25.938c18.477 0 29.036-8.155 29.036-22.169 0-13.324-9.296-20.904-25.479-20.904h-29.495zm0 114.058h30.873c19.97 0 30.757-8.5 30.757-24.351 0-15.507-11.132-23.777-31.56-23.777h-30.07v48.128zm170.66-77.762c-15.265 0-26.512 11.142-27.66 27.337h54.515c-.574-16.54-11.362-27.337-26.856-27.337zm27.314 65.012h30.872c-3.672 24.465-26.511 40.776-57.269 40.776-38.447 0-61.974-24.695-61.974-64.897 0-40.202 23.642-65.931 60.712-65.931 36.381 0 59.564 24.35 59.564 62.83v10.337h-87.223v2.068c0 18.263 11.821 30.553 29.495 30.553 12.625 0 22.61-5.973 25.823-15.736z" fill="#FFF"/></g></svg>