<?xml version="1.0" encoding="utf-8"?>
<!-- Generator: Adobe Illustrator 21.1.0, SVG Export Plug-In . SVG Version: 6.00 Build 0)  -->
<!DOCTYPE svg PUBLIC "-//W3C//DTD SVG 1.1//EN" "http://www.w3.org/Graphics/SVG/1.1/DTD/svg11.dtd">
<svg version="1.1" id="Layer_1" xmlns="http://www.w3.org/2000/svg" xmlns:xlink="http://www.w3.org/1999/xlink" x="0px" y="0px"
	 viewBox="0 0 841.9 595.3" style="enable-background:new 0 0 841.9 595.3;" xml:space="preserve">
<style type="text/css">
	.st0{fill:#76B043;}
	.st1{fill:#153235;}
</style>
<path class="st0" d="M450,271.6c0,3.5-2.8,6.3-6.2,6.3c-3.4,0-6.2-2.8-6.2-6.3c0-3.5,2.8-6.3,6.2-6.3
	C447.3,265.3,450,268.1,450,271.6"/>
<path class="st1" d="M368.3,309.2c1.3,0,2.6-0.2,3.7-0.6c1.1-0.4,2.1-1,3-1.8c0.8-0.8,1.5-1.7,2-2.8c0.5-1.1,0.7-2.3,0.7-3.6v-0.1
	c0-1.3-0.2-2.5-0.7-3.6c-0.5-1.1-1.1-2-2-2.8c-0.8-0.8-1.8-1.4-3-1.8c-1.1-0.4-2.4-0.6-3.7-0.6c-1.3,0-2.6,0.2-3.7,0.6
	c-1.1,0.4-2.1,1-2.9,1.8c-0.8,0.8-1.5,1.7-2,2.8c-0.5,1.1-0.7,2.3-0.7,3.6v0.1c0,2.7,0.9,4.8,2.6,6.4
	C363.4,308.4,365.6,309.2,368.3,309.2 M367,332.9c-3.1,0-6.1-0.3-9-1c-2.9-0.7-5.5-1.7-7.9-3l3.7-8.1c2,1.1,4,1.9,6,2.6
	c2,0.6,4.3,0.9,6.9,0.9c3.7,0,6.5-0.9,8.2-2.6c1.8-1.8,2.7-4.3,2.7-7.8V312c-1.6,1.9-3.4,3.5-5.3,4.5c-1.9,1.1-4.3,1.6-7.2,1.6
	c-2.2,0-4.4-0.4-6.4-1.2c-2-0.8-3.9-1.9-5.4-3.5c-1.6-1.5-2.8-3.4-3.7-5.6c-0.9-2.2-1.4-4.7-1.4-7.6v-0.1c0-2.9,0.5-5.4,1.4-7.6
	c1-2.2,2.2-4.1,3.8-5.6c1.6-1.5,3.4-2.7,5.4-3.5c2-0.8,4.2-1.2,6.3-1.2c2.9,0,5.4,0.5,7.3,1.6c1.9,1.1,3.6,2.4,5.1,4.1v-5h10.8v29.6
	c0,6.8-1.6,11.8-4.9,15.1c-1.8,1.8-4.1,3.1-6.8,3.9C373.9,332.5,370.7,332.9,367,332.9"/>
<path class="st1" d="M411.1,314.5c2.6,0,4.6-0.6,6.2-1.8c1.5-1.2,2.3-2.8,2.3-4.8v-1.9c-1-0.4-2-0.8-3.2-1c-1.2-0.3-2.4-0.4-3.7-0.4
	c-2.3,0-4.2,0.5-5.5,1.4c-1.3,0.9-2,2.2-2,3.9v0.1c0,1.5,0.5,2.6,1.6,3.4C407.9,314.1,409.3,314.5,411.1,314.5 M407.8,322
	c-1.8,0-3.5-0.2-5.1-0.7c-1.6-0.5-3-1.2-4.2-2.2c-1.2-1-2.1-2.2-2.8-3.7c-0.7-1.4-1-3.1-1-5v-0.1c0-2.1,0.4-3.9,1.1-5.4
	c0.8-1.5,1.8-2.8,3.2-3.8c1.4-1,3-1.7,4.8-2.2c1.9-0.5,4-0.7,6.2-0.7c1.9,0,3.6,0.1,5.1,0.4c1.5,0.3,2.9,0.7,4.2,1.1v-0.6
	c0-2.3-0.7-4-2.1-5.2c-1.4-1.2-3.4-1.8-6.1-1.8c-2.1,0-3.9,0.2-5.5,0.5c-1.6,0.4-3.3,0.9-5,1.5l-2.7-8.3c2.1-0.9,4.3-1.6,6.6-2.2
	c2.3-0.6,5-0.9,8.3-0.9c3,0,5.5,0.4,7.7,1.1c2.1,0.7,3.9,1.8,5.2,3.2c1.4,1.4,2.5,3.2,3.1,5.2c0.7,2.1,1,4.4,1,7v22.2h-10.5l0-4.1
	c-1.3,1.5-2.9,2.6-4.8,3.5C412.8,321.5,410.5,322,407.8,322"/>
<rect x="438.9" y="283.1" class="st1" width="10.8" height="38.2"/>
<path class="st1" d="M458.5,283.1h10.8v5.5c0.6-0.8,1.3-1.6,2-2.3s1.6-1.4,2.5-2c0.9-0.6,1.9-1,3-1.4c1.1-0.3,2.3-0.5,3.7-0.5
	c4.1,0,7.3,1.3,9.6,3.8c2.3,2.5,3.4,6,3.4,10.4v24.7h-10.8V300c0-2.6-0.6-4.5-1.7-5.8c-1.1-1.3-2.8-2-4.9-2c-2.1,0-3.7,0.7-5,2
	c-1.2,1.3-1.8,3.2-1.8,5.8v21.3h-10.8V283.1z"/>
</svg>
