<svg id="Layer_1" data-name="Layer 1" xmlns="http://www.w3.org/2000/svg" viewBox="0 0 372.22 314.54"><defs><style>.cls-2{fill:#77787b}.cls-3{fill:#aacf37}</style></defs><path d="M37.81 304.6a4.7 4.7 0 00-3.6-1.54c-2.39 0-4.19 1.72-4.19 4.76s1.39 4.86 4.2 4.86a2.34 2.34 0 001.84-.6v-2.86H33.3v-1.7h4.8v5.67a7.77 7.77 0 01-4.1 1.15c-4 0-6.06-2.57-6.06-6.51s2.62-6.42 6.15-6.42a6.44 6.44 0 014 1.17v1.91a.14.14 0 01-.28.11zm12.99 4.29v.05l3.1 5.25h-2.51l-2.48-4.9h-1.72v4.9h-2v-12.63h3.63c2.92 0 4.52 1.55 4.52 3.71a3.51 3.51 0 01-2.54 3.62zm.42-3.56a2 2 0 00-2.22-2.06h-1.82v4.39h1.43c1.79 0 2.61-.51 2.61-2.33zm16.83 8.86h-8v-12.63h8v1.71h-6v3.2h5.55v1.72h-5.51v4.29h6zm14.7 0h-8v-12.63h8v1.71h-6v3.2h5.56v1.72h-5.53v4.29h6zm13.4-3.8l.47 1.4v-10.23h2v12.63h-2.79l-4-8.82-.48-1.37v10.23h-2v-12.67h2.71zm23.26 3.8h-2v-10.92h-4v-1.71h10.1v1.71h-4zm18.3 0h-8v-12.63h8v1.71h-6v3.2h5.55v1.72h-5.55v4.29h6zm15.04-3.42c.07-.11.22 0 .22.11V313a6.07 6.07 0 01-4.07 1.38c-3.57 0-5.69-2.48-5.69-6.46s2.52-6.47 5.89-6.47a5.17 5.17 0 013.76 1.19v2.07c0 .13-.14.21-.21.11a4.35 4.35 0 00-3.43-1.65c-2.23 0-3.88 1.6-3.88 4.69s1.33 4.78 3.8 4.78a4.83 4.83 0 003.61-1.87zm15.9-9.21v12.63h-2.06v-6.06h-5.12v6.06h-2.06v-12.63h2.06v4.86h5.12v-4.86zm24.8 9.21c.08-.11.23 0 .23.11V313a6.09 6.09 0 01-4.07 1.38c-3.57 0-5.7-2.48-5.7-6.46s2.52-6.47 5.9-6.47a5.18 5.18 0 013.76 1.19v2.07c0 .13-.15.21-.22.11a4.35 4.35 0 00-3.44-1.65c-2.2 0-3.86 1.6-3.86 4.69s1.33 4.78 3.79 4.78a4.81 4.81 0 003.61-1.87zm11.1 3.57c-3.5 0-5.52-2.81-5.52-6.44s2-6.49 5.52-6.49 5.55 2.88 5.55 6.49-2.04 6.44-5.55 6.44zm0-1.72c2.26 0 3.44-1.94 3.44-4.74s-1.18-4.74-3.44-4.74-3.39 1.95-3.39 4.74 1.15 4.74 3.39 4.74zm18.04-3.73v.05l3.11 5.25h-2.52l-2.47-4.9H219v4.9h-2.07v-12.63h3.65c2.91 0 4.53 1.55 4.53 3.71a3.53 3.53 0 01-2.52 3.62zm.43-3.56a2 2 0 00-2.19-2.06H219v4.39h1.42c1.77 0 2.58-.51 2.58-2.33zm16.84.05c0 2.56-1.75 4.22-4.43 4.22h-1.58v4.59h-2.06v-12.63h3.58c2.88 0 4.49 1.62 4.49 3.82zm-2.05.09c0-1.34-.78-2.23-2.74-2.23h-1.25v4.67h1.09c1.83 0 2.9-.91 2.9-2.44zm13.41 8.87c-3.49 0-5.52-2.81-5.52-6.44s2-6.49 5.52-6.49 5.57 2.88 5.57 6.49-2.05 6.44-5.57 6.44zm0-1.72c2.26 0 3.44-1.94 3.44-4.74s-1.18-4.74-3.44-4.74-3.4 1.95-3.4 4.74 1.18 4.74 3.4 4.74zm18.04-3.73v.05l3.11 5.25h-2.52l-2.46-4.9h-1.73v4.9h-2.05v-12.63h3.65c2.91 0 4.52 1.55 4.52 3.71a3.52 3.52 0 01-2.52 3.62zm.43-3.56a2 2 0 00-2.18-2.06h-1.86v4.39h1.43c1.78 0 2.61-.51 2.61-2.33zm13.9-3.77l4.22 12.63h-2.06l-1.12-3.46h-4.28l-1.14 3.46h-2.06l4.2-12.63zm-1.11 1.85l-.33 1.21-1.41 4.47h3.48l-1.41-4.47zm15.21 10.78h-2.05v-10.92h-4v-1.71h10.11v1.71h-4zm12.15-12.63v12.63h-2.06v-12.63zm11.96 12.78c-3.51 0-5.53-2.81-5.53-6.44s2-6.49 5.53-6.49 5.55 2.88 5.55 6.49-2.03 6.44-5.55 6.44zm0-1.72c2.25 0 3.43-1.94 3.43-4.74s-1.18-4.74-3.43-4.74-3.4 1.95-3.4 4.74 1.15 4.74 3.4 4.74zm19.12-2.23l.46 1.4v-10.23h1.95v12.63h-2.71l-4-8.82-.52-1.37v10.23h-1.95v-12.67h2.71z" transform="translate(.5 .2)" fill="#929497"/><path class="cls-2" d="M77.26 276.92a2.58 2.58 0 01-2.08-1l-15.27-20.06a2.69 2.69 0 01-.26-2.76 2.59 2.59 0 012.35-1.44c10.58 0 12.64-2.84 12.64-7.74a6.7 6.7 0 00-5.87-7.09H56.44v37.47a2.62 2.62 0 11-5.24 0v-40.09a2.59 2.59 0 012.61-2.6h15.38a11.87 11.87 0 0110.69 12.3c0 9.57-7.1 12.08-12.79 12.73l12.25 16.08a2.62 2.62 0 01-.49 3.66 2.73 2.73 0 01-1.59.54zm37.65.56h-24.7a2.6 2.6 0 01-2.6-2.61V233.1a2.61 2.61 0 012.6-2.61h25.25a2.62 2.62 0 110 5.24H92.85v36.52h22.06a2.62 2.62 0 110 5.23z" transform="translate(.5 .2)"/><path class="cls-2" d="M112 256.61H90.21a2.62 2.62 0 010-5.24H112a2.62 2.62 0 110 5.24zm41.5 20.87h-24.7a2.61 2.61 0 01-2.61-2.61V233.1a2.62 2.62 0 012.61-2.61h25.26a2.62 2.62 0 110 5.24h-22.63v36.52h22.07a2.62 2.62 0 110 5.23z" transform="translate(.5 .2)"/><path class="cls-2" d="M150.59 256.61H128.8a2.62 2.62 0 010-5.24h21.79a2.62 2.62 0 010 5.24zm17.71 20.87a2.61 2.61 0 01-2.61-2.61V235a2.6 2.6 0 014.77-1.46l21.1 31.46v-30.79a2.62 2.62 0 015.24 0v39.44a2.61 2.61 0 01-1.86 2.5 2.59 2.59 0 01-2.93-1.06l-21.09-31.51v31.29a2.62 2.62 0 01-2.62 2.61zm85.36-.48h-22.53a2.62 2.62 0 01-2.63-2.61v-41a2.62 2.62 0 115.23 0v38.41h19.93a2.62 2.62 0 110 5.24zm68.25 0h-16a2.61 2.61 0 01-2.61-2.61v-40a2.62 2.62 0 115.24 0v15.5h7.65c5.58 0 18.4.06 18.75 13 .27 10.17-8.23 13.7-12.77 14.16zm-13.36-5.24h13.22c1.21-.16 8.14-1.36 7.94-8.79-.17-6.55-5-7.84-13.43-7.87h-7.73z" transform="translate(.5 .2)"/><path class="cls-2" d="M305.92 271a2.61 2.61 0 01-2.61-2.61v-35.23a2.59 2.59 0 012.61-2.61h14.27c4.1.4 11.73 3.59 11.49 12.78C331.37 255 319.91 255 315 255.07h-6.47v13.34a2.63 2.63 0 01-2.61 2.59zm2.63-21.2h6.37c7.38 0 11.37-1.08 11.53-6.63.18-6.2-5.57-7.26-6.68-7.41h-11.22zm47.56 27.71a15.92 15.92 0 01-14.18-8.58 2.62 2.62 0 114.6-2.5 11 11 0 0012.67 5.45c3.62-.92 7.29-3.74 7.29-8 0-3.71-2.37-4.56-8.6-5.89-4.68-1-10-2.13-13.17-6.56s-3.65-9.19-1.49-13.33c2.36-4.61 7.67-7.57 13.52-7.57 10.63 0 14.61 9.42 14.78 9.83a2.61 2.61 0 01-4.84 2c-.12-.26-2.86-6.58-9.94-6.58-3.93 0-7.4 1.85-8.87 4.73-1.25 2.42-.86 5.14 1.1 7.91s5.89 3.6 10 4.48c5.68 1.22 12.75 2.71 12.75 11 0 6.11-4.54 11.36-11.27 13.07a18.77 18.77 0 01-4.35.54zm-332.98-.03c-13.3 0-23.63-12-23.63-22.28 0-11.38 6.73-23.59 21.52-23.59 15.24 0 21.28 10.8 21.53 11.26a2.62 2.62 0 01-4.6 2.51c-.22-.38-4.95-8.55-16.95-8.55-12.84 0-16.29 11.54-16.29 18.37 0 7.72 8.22 17.05 18.4 17.05 10.61 0 13.33-3.32 14.5-9.47v-4.66H23.32a2.61 2.61 0 110-5.22h16.93a2.61 2.61 0 012.61 2.6v7.5a3.44 3.44 0 010 .46c-1.86 9.98-7.57 14.02-19.73 14.02zm239.69-.9a2.62 2.62 0 01-1.05-.21 2.73 2.73 0 01-1.45-3.56l17.12-40.68a2.72 2.72 0 015 2.11l-17.12 40.68a2.75 2.75 0 01-2.5 1.66z" transform="translate(.5 .2)"/><path class="cls-2" d="M297.07 276.58a2.72 2.72 0 01-2.5-1.66l-17.13-40.68a2.72 2.72 0 015-2.11l17.13 40.68a2.74 2.74 0 01-1.45 3.56 2.71 2.71 0 01-1.05.21z" transform="translate(.5 .2)"/><path class="cls-2" d="M287.09 258.94h-14.3a2.71 2.71 0 110-5.42h14.3a2.71 2.71 0 110 5.42z" transform="translate(.5 .2)"/><path class="cls-3" d="M184.66 96a3.46 3.46 0 10-3.46-3.45 3.44 3.44 0 003.46 3.45zm25.94 18.57a6.9 6.9 0 10-6.89-6.91 6.91 6.91 0 006.89 6.91z" transform="translate(.5 .2)"/><path class="cls-3" d="M172.55 69.39l7.74-14.48V11.85c0-12.41-12-12-12-12h-34.11C115.31-.19 100 15 100 33.59v111.68c0 18.63 15.36 33.79 34.23 33.79h116.71c18.88 0 34.24-15.16 34.24-33.79V33.59c0-18.59-15.36-33.78-34.24-33.78h-34.19s-12-.37-12 12v43.1l7.75 14.48m1.28 2.42l24.6 46 .18.31.19.27c1.77 2.58 4 7.6 3.13 10.21-.12.33-.38 1.15-2.08 1.94h-94.5c-1.72-.79-2-1.61-2.09-1.94-.85-2.61 1.36-7.63 3.11-10.2l.2-.28 24.77-46.3m101.88 73.46A22 22 0 01250.94 167H134.18A22 22 0 01112 145.27V33.59a22 22 0 0122.19-21.74h34.07V51.9l-32.07 60c-1.4 2.1-7.28 11.71-4.47 20.41 1 3.23 3.68 7.58 10.37 10l1 .34H242l1-.34c6.7-2.39 9.35-6.74 10.4-10 2.79-8.7-3.09-18.31-4.49-20.41l-32.16-60V12l.09-.11h34.1a22 22 0 0122.19 21.74z" transform="translate(.5 .2)"/><path class="cls-3" d="M214.24 72l-1.29-2.41h-39.9l-1.3 2.41h42.49z"/></svg>