<svg xmlns="http://www.w3.org/2000/svg" xmlns:xlink="http://www.w3.org/1999/xlink" width="142.16" height="55.97" viewBox="0 0 142.16 55.97"><defs><linearGradient id="a" x1="16.83" y1="-7.19" x2="16.83" y2="67.09" gradientUnits="userSpaceOnUse"><stop offset="0" stop-color="#009cff"/><stop offset="1" stop-color="#3469e5"/></linearGradient><linearGradient id="b" x1="71.08" y1="-7.19" x2="71.08" y2="67.09" xlink:href="#a"/><linearGradient id="c" x1="125.33" y1="-7.19" x2="125.33" y2="67.09" xlink:href="#a"/><linearGradient id="d" x1="2.8" y1="57.97" x2="2.8" y2="42.32" xlink:href="#a"/><linearGradient id="e" x1="22.74" y1="57.97" x2="22.74" y2="42.32" xlink:href="#a"/><linearGradient id="f" x1="46.02" y1="57.97" x2="46.02" y2="42.32" xlink:href="#a"/><linearGradient id="g" x1="68.45" y1="57.97" x2="68.45" y2="42.32" xlink:href="#a"/><linearGradient id="h" x1="91.22" y1="57.97" x2="91.22" y2="42.32" xlink:href="#a"/><linearGradient id="i" x1="113.5" y1="57.97" x2="113.5" y2="42.32" xlink:href="#a"/><linearGradient id="j" x1="135.57" y1="57.97" x2="135.57" y2="42.32" xlink:href="#a"/></defs><g data-name="Layer 2"><g data-name="Layer 1"><path d="M16.67 0A16.83 16.83 0 1017 0z" fill="url(#a)"/><path d="M63.16 8v17.82a11.61 11.61 0 000 1.18A7.94 7.94 0 1079 25.82V8a7.92 7.92 0 10-15.84 0" fill="url(#b)"/><path d="M125.17 0a16.88 16.88 0 00.23 33.76A16.88 16.88 0 00125.5 0z" fill="url(#c)"/><path fill="url(#d)" d="M2.19 55.97h1.22V45.84H2.19v10.13z"/><path fill="url(#e)" d="M26.31 45.84L22.74 51l-3.56-5.16h-1.51v10.13h1.22v-8.35l3.66 5.16h.29l3.75-5.07v8.26h1.22V45.84h-1.5z"/><path d="M45.27 45.84L40.76 56h1.41l.94-2.25h5.81L50 56h1.32l-4.55-10.16zm.75 1.3l2.35 5.44h-4.79z" fill="url(#f)"/><path fill="url(#g)" d="M71.36 45.84v7.69l-6.19-7.69h-.84v10.13h1.22v-7.69l6.19 7.69h.84V45.84h-1.22z"/><path d="M86.85 45.84V56h3.66c3.57 0 5.07-2.53 5.07-5.16a4.74 4.74 0 00-5.07-5zm1.22 1.22h2.44a3.61 3.61 0 013.85 3.75 3.7 3.7 0 01-3.85 3.94h-2.44z" fill="url(#h)"/><path d="M109.28 45.84V47h4.59a2.12 2.12 0 012.13 2.12 2 2 0 01-2.25 2.07h-3.29v-2.37l-1.13-.94V56h1.22v-3.69H113l3.2 3.56h1.57l-3.37-3.75a2.88 2.88 0 002.86-3.12 3.15 3.15 0 00-3.38-3.19z" fill="url(#i)"/><path d="M134.82 45.84L130.32 56h1.4l.94-2.25h5.81l1 2.25h1.32l-4.6-10.13zm.75 1.3l2.35 5.44h-4.79z" fill="url(#j)"/></g></g></svg>