<svg width="677" height="309" viewBox="0 0 677 309" xmlns="http://www.w3.org/2000/svg"><g transform="translate(0 5)" fill="none" fill-rule="evenodd"><g transform="translate(522 149)" stroke="#000"><ellipse stroke-width="13" transform="rotate(1 75.149 74.131)" cx="75.149" cy="74.131" rx="36.5" ry="37.5"/><path stroke-width="10" d="M.564 40.493V0H150v150H0l.151-40.13"/></g><g stroke="#000"><path d="M372 188.244V149h150v40m0 70v40H372l.151-39.74" stroke-width="10"/><path d="M429.73 267.066v-78.071c28.853-2.532 43.279 6.105 43.279 25.911 0 29.71-25.853 25.366-37.996 25.366" stroke-width="13"/></g><g transform="translate(223 149)" stroke="#000"><ellipse stroke-width="13" transform="rotate(1 76.149 72.131)" cx="76.149" cy="72.131" rx="36.5" ry="37.5"/><path d="M0 39.244V0h150v40m0 70v40H0l.151-39.74" stroke-width="10"/></g><g stroke="#000"><path d="M467 44.41c-5.617-7.321-12.59-10.573-20.922-9.756-12.496 1.226-15.968 10.232-15.968 16.013 0 5.78 3.545 9.966 6.317 12.121 1.848 1.437 9.879 5.664 24.092 12.682 6.173 3.817 9.26 8.992 9.26 15.524 0 9.799-6.406 15.147-12.516 17.319-6.11 2.171-11.185 2.038-18.96-.953-7.776-2.991-13.52-11.897-14.41-13.631" stroke-width="13"/><path stroke-width="10" d="M373.564 40.493V0H523v150H373l.151-40.13"/></g><g stroke="#000"><path d="M323.392 34.446h-45.288v72.627h47.42m-41.758-28.43h35.305" stroke-width="13"/><path d="M223 39.244V0h150v40m0 70v40H223l.151-39.74" stroke-width="10"/></g><g stroke="#000"><path stroke-width="13" d="M113 115V44l35 42.454L183 45v70"/><path d="M73 39.244V0h150v40m0 70v40H73l.151-39.74" stroke-width="10"/></g><circle fill="#D12329" cx="24" cy="75" r="24"/></g></svg>