<?xml version="1.0" encoding="UTF-8"?>
<svg width="677px" height="309px" viewBox="0 0 677 309" version="1.1" xmlns="http://www.w3.org/2000/svg" xmlns:xlink="http://www.w3.org/1999/xlink">
    <!-- Generator: Sketch 50 (54983) - http://www.bohemiancoding.com/sketch -->
    <title>Logo 6</title>
    <desc>Created with Sketch.</desc>
    <defs></defs>
    <g id="Logo" stroke="none" stroke-width="1" fill="none" fill-rule="evenodd">
        <g id="Logo-6" transform="translate(0.000000, 5.000000)">
            <g id="O" transform="translate(522.000000, 149.000000)" stroke="#000000">
                <ellipse stroke-width="13" transform="translate(75.148906, 74.131301) rotate(1.000000) translate(-75.148906, -74.131301) " cx="75.1489061" cy="74.1313014" rx="36.5" ry="37.5"></ellipse>
                <polyline id="path" stroke-width="10" points="0.564451122 40.4933889 0.564451122 0 0.564451122 0 150 0 150 41.273127 150 109.607456 150 150 0 150 0.151007398 109.870556"></polyline>
            </g>
            <g id="P" transform="translate(372.000000, 149.000000)" stroke="#000000">
                <path d="M-4.26325641e-14,39.244314 L-4.26325641e-14,0 L150,0 L150,40 M150,110 L150,150 L0,150 L0.151007398,110.260544" id="frame" stroke-width="10"></path>
                <path d="M57.7309285,118.065833 L57.7309285,39.9945152 C86.5826793,37.4628437 101.008555,46.1000477 101.008555,65.9061272 C101.008555,95.6152463 75.1555311,91.2719222 63.0126108,91.2719222" stroke-width="13"></path>
            </g>
            <g id="O" transform="translate(223.000000, 149.000000)" stroke="#000000">
                <ellipse stroke-width="13" transform="translate(76.148906, 72.131301) rotate(1.000000) translate(-76.148906, -72.131301) " cx="76.1489061" cy="72.1313014" rx="36.5" ry="37.5"></ellipse>
                <path d="M4.26325641e-14,39.244314 L4.26325641e-14,0 L150,0 L150,40 M150,110 L150,150 L4.26325641e-14,150 L0.151007398,110.260544" id="Path-2-Copy" stroke-width="10"></path>
            </g>
            <g id="S" transform="translate(373.000000, 0.000000)" stroke="#000000">
                <path d="M94.0000332,44.4104003 C88.3831231,37.0886648 81.4092111,33.8365632 73.0782973,34.6540956 C60.5819265,35.8803942 57.1099612,44.8859879 57.1099612,50.666522 C57.1099612,56.4470561 60.6548225,60.6332845 63.4272214,62.7884191 C65.2754874,64.2251754 73.3059993,68.4523377 87.518757,75.4699058 C93.6917929,79.287497 96.7783109,84.4623281 96.7783109,90.9943994 C96.7783109,100.792506 90.3734579,106.140955 84.2631282,108.31255 C78.1527985,110.484145 73.0782973,110.350699 65.3025295,107.359612 C57.5267616,104.368525 51.7820559,95.4628375 50.8931952,93.7286185" stroke-width="13"></path>
                <polyline id="path" stroke-width="10" points="0.564451122 40.4933889 0.564451122 0 0.564451122 0 150 0 150 41.273127 150 109.607456 150 150 0 150 0.151007398 109.870556"></polyline>
            </g>
            <g id="E" transform="translate(223.000000, 0.000000)" stroke="#000000">
                <path d="M100.392338,34.4461514 L55.1039797,34.4461514 L55.1039797,107.07305 L102.524331,107.07305 M60.7661101,78.6429228 L96.0711786,78.6429228" stroke-width="13"></path>
                <path d="M4.26325641e-14,39.244314 L4.26325641e-14,0 L150,0 L150,40 M150,110 L150,150 L4.26325641e-14,150 L0.151007398,110.260544" id="Path-2" stroke-width="10"></path>
            </g>
            <g id="M" transform="translate(73.000000, 0.000000)" stroke="#000000">
                <polyline stroke-width="13" points="40 115 40 44 75 86.4538879 110 45 110 115"></polyline>
                <path d="M4.26325641e-14,39.244314 L4.26325641e-14,0 L150,0 L150,40 M150,110 L150,150 L4.26325641e-14,150 L0.151007398,110.260544" id="Path-2" stroke-width="10"></path>
            </g>
            <circle id="dpt" fill="#D12329" cx="24" cy="75" r="24"></circle>
        </g>
    </g>
</svg>