<svg width="54" height="46" viewBox="0 0 54 46" xmlns="http://www.w3.org/2000/svg" xmlns:xlink="http://www.w3.org/1999/xlink"><defs><path id="a" d="M.11.012h6.792v8.226H.11z"/><path id="c" d="M0 .012h6.153v8.226H0z"/><path id="e" d="M.12.078h6.978V8.5H.121z"/></defs><g fill="none" fill-rule="evenodd"><path fill="#FFF" d="M0 0h54v46H0z"/><g fill="#2962FF"><path d="M18.824 6.58c-4.432 4.439-4.432 11.614 0 16.02l8.014 8.025 8.015-8.025c4.432-4.437 4.432-11.613 0-16.02a11.315 11.315 0 00-16.03 0m14.16 14.202c-3.378 3.386-8.88 3.386-12.307 0-3.379-3.387-3.379-8.901 0-12.336 3.379-3.435 8.88-3.386 12.308 0 3.426 3.386 3.426 8.901 0 12.336"/><path d="M29.46 12.902h1.293l.597 1.371h-1.89v-1.37zm2.75 5.535h1.18v-2.844c-.15-.507-1.344-1.116-1.344-1.116l-.945-2.133h-2.587.05v6.093h1.12c.03-.688.585-1.237 1.263-1.237.68 0 1.233.549 1.262 1.237zm-10.44-4.489h5.363v-.15H21.77v.15zm0-1.544h5.363v-.15H21.77v.15zm0 2.988h5.363v-.15H21.77v.15zm2.367 2.64h3.971v-7.72h-7.313v7.72h.868c.028-.676.571-1.214 1.237-1.214.665 0 1.207.538 1.237 1.213z"/><path d="M33.39 16.89c0 .188-.175.329-.407.329-.232 0-.406-.141-.406-.328v-.563c0-.187.174-.328.406-.328.232 0 .406.14.406.328v.563m-12.594.406c0 .187-.174.328-.405.328-.233 0-.407-.14-.407-.328v-.562c0-.188.174-.329.407-.329.231 0 .405.14.405.329v.562m11.172 1.14a1.016 1.016 0 11-2.031 0 1.016 1.016 0 012.031 0m-8.043-.406a1.016 1.016 0 11-2.032 0 1.016 1.016 0 012.032 0"/></g><path d="M19.875 33.926h3.507c.504 0 .953.072 1.345.218.392.145.717.347.973.607.202.204.357.444.466.719.109.275.163.577.163.907v.024c0 .345-.054.654-.163.925a2.116 2.116 0 01-.46.707 2.49 2.49 0 01-.705.495c-.272.13-.567.222-.885.277l2.509 3.37h-1.132l-2.367-3.205h-2.329v3.206h-.922v-8.25zm3.431 4.207c.304 0 .584-.04.84-.118.257-.078.48-.19.666-.336.187-.145.333-.322.438-.53.104-.208.157-.446.157-.713v-.024c0-.51-.183-.909-.548-1.196-.366-.287-.88-.43-1.541-.43h-2.52v3.347h2.508zm7.048-3.347h-2.729v-.86H34v.86h-2.729v7.39h-.917zm5.396-.86h5.941v.848h-5.013v2.817h4.485v.849h-4.485v2.887h5.072v.849h-6z" fill="#2962FF"/><g transform="translate(43.5 33.926)"><mask id="b" fill="#fff"><use xlink:href="#a"/></mask><path d="M.11.012h3.53c.507 0 .959.073 1.354.218.394.145.72.346.978.605.203.204.36.443.47.717.109.274.164.575.164.905v.023c0 .345-.055.652-.165.923a2.11 2.11 0 01-.463.705c-.2.2-.436.364-.709.493a3.36 3.36 0 01-.89.276l2.524 3.361h-1.14L3.381 5.042H1.038v3.196H.11V.012zm3.453 4.196c.305 0 .587-.04.845-.118.259-.078.482-.19.67-.335a1.55 1.55 0 00.44-.529c.106-.207.159-.444.159-.71v-.024c0-.51-.184-.907-.552-1.193C4.757 1.013 4.24.87 3.575.87H1.038v3.338h2.525z" fill="#2962FF" mask="url(#b)"/></g><g transform="translate(3.5 33.926)"><mask id="d" fill="#fff"><use xlink:href="#c"/></mask><path d="M0 .012h3.077c.461 0 .882.061 1.262.182.38.122.704.294.974.517.27.224.478.496.623.817.144.322.217.686.217 1.093v.024c0 .446-.087.836-.259 1.169a2.504 2.504 0 01-.698.84 3.04 3.04 0 01-1.027.511c-.391.114-.806.17-1.244.17H.929v2.903H0V.012zM2.965 4.49c.337 0 .645-.043.923-.13a2.14 2.14 0 00.718-.37c.2-.16.353-.35.459-.57.105-.219.158-.466.158-.74v-.024c0-.587-.202-1.032-.605-1.333C4.214 1.02 3.678.87 3.012.87H.929v3.62h2.036z" fill="#2962FF" mask="url(#d)"/></g><g transform="translate(11.125 33.8)"><mask id="f" fill="#fff"><use xlink:href="#e"/></mask><path d="M1.143 1.102a3.48 3.48 0 000 4.929L3.61 8.5l2.466-2.47a3.481 3.481 0 000-4.928 3.482 3.482 0 00-4.932 0M5.5 5.472a2.685 2.685 0 01-3.787 0 2.7 2.7 0 010-3.796C2.753.619 4.446.634 5.5 1.676a2.673 2.673 0 010 3.795" fill="#2962FF" mask="url(#f)"/></g><path d="M15.54 36.847h.399l.183.422h-.581v-.422zm.847 1.704h.363v-.876c-.046-.156-.413-.343-.413-.343l-.291-.656h-.796.015v1.875h.345a.394.394 0 01.389-.381c.208 0 .379.169.388.38zm-3.212-1.381h1.65v-.047h-1.65v.046zm0-.476h1.65v-.046h-1.65v.046zm0 .92h1.65v-.047h-1.65v.046zm.728.812h1.222V36.05h-2.25v2.375h.267a.385.385 0 01.38-.374c.205 0 .372.166.381.374z" fill="#2962FF"/><path d="M16.75 38.075c0 .057-.054.1-.125.1-.071 0-.125-.043-.125-.1v-.173c0-.058.054-.101.125-.101.071 0 .125.043.125.1v.174m-3.875.125c0 .057-.054.1-.125.1-.071 0-.125-.043-.125-.1v-.173c0-.058.054-.101.125-.101.071 0 .125.043.125.1v.174m3.438.35a.313.313 0 11-.626 0 .313.313 0 01.626 0m-2.477-.124a.313.313 0 11-.625 0 .313.313 0 01.625 0" fill="#2962FF"/></g></svg>