<svg xmlns="http://www.w3.org/2000/svg" viewBox="0 0 196 196"><path d="M4.31 136.06h3.9v2.22a9.38 9.38 0 0 1 7-2.7c6.82 0 10.55 5.46 10.55 11.64S22 158.85 15.14 158.85a9 9 0 0 1-6.93-2.7v11.49H2v-29.3a2.34 2.34 0 0 1 2.31-2.28zm15.42 11.18c0-3.72-1.84-6.59-6-6.59s-6.06 2.84-6.06 6.59 1.92 6.68 6.06 6.68 6-2.92 6-6.68zm9.49 2.26v-11.13a2.28 2.28 0 0 1 2.28-2.29h3.65v12.75c0 2.92 1.61 5 4.7 5 3.37 0 5.54-1.67 5.54-5.57v-9.93a2.28 2.28 0 0 1 2.28-2.29h3.67v22.38h-6v-2.64a9.71 9.71 0 0 1-7.27 3.06c-6.38.04-8.85-4.67-8.85-9.34zm29.3-13.44h3.9v2.22a9.38 9.38 0 0 1 7-2.7c6.83 0 10.58 5.42 10.58 11.64s-3.73 11.63-10.63 11.63a9 9 0 0 1-6.93-2.7v11.49h-6.23v-29.3a2.3 2.3 0 0 1 2.31-2.28zm15.42 11.18c0-3.72-1.84-6.59-6-6.59s-6.07 2.84-6.07 6.59 1.92 6.68 6.07 6.68 6-2.92 6-6.68zm12.61-20.45h1.72a2.28 2.28 0 0 1 2.29 2.28v.45a2.27 2.27 0 0 1-2.29 2.28h-1.72a2.27 2.27 0 0 1-2.28-2.28v-.45a2.25 2.25 0 0 1 2.28-2.28zm.14 9.27h3.7v22.37h-6v-20.06a2.3 2.3 0 0 1 2.31-2.31zM95.82 154v-24.9a2.27 2.27 0 0 1 2.28-2.28h3.7v25.66c0 1.05.75 1.5 2 1.5a11.13 11.13 0 0 0 1.65-.14v4.59a27 27 0 0 1-4.48.45c-2.84 0-5.15-.98-5.15-4.88zm15.11-13.36h-4.51v-2.28a2.32 2.32 0 0 1 2.28-2.36h2.3v-3c0-4.34 3.73-6.73 7.85-6.73a12.22 12.22 0 0 1 4.46.92l-2 4.51a4.19 4.19 0 0 0-1.92-.56 2.15 2.15 0 0 0-2.25 2.45v2.45h5.73v4.56h-5.73v17.81h-6.24zm18.53-13.83h1.73a2.27 2.27 0 0 1 2.28 2.28v.45a2.27 2.27 0 0 1-2.28 2.28h-1.73a2.27 2.27 0 0 1-2.28-2.28v-.45a2.25 2.25 0 0 1 2.28-2.3zm.14 9.27h3.7v22.37h-6v-20.08a2.32 2.32 0 0 1 2.31-2.31zm11.61 0h3.56v3.75a7 7 0 0 1 6.59-4.23 6.57 6.57 0 0 1 4.51 1.62l-2.72 4.48a5.09 5.09 0 0 0-2.7-.75c-2.82 0-5.74 2.36-5.74 8.07v9.46h-5.81v-20.11a2.33 2.33 0 0 1 2.31-2.31zm15.47 16l3.42-1.39a5.31 5.31 0 0 0 5.23 3.67c2.79 0 4-1.47 4-2.67 0-3.76-12.35-1.23-12.35-9.13 0-4.73 4.4-7 9.13-7a10.7 10.7 0 0 1 8.26 3.43 1.42 1.42 0 0 1-.11 2 1.31 1.31 0 0 1-.28.2l-3.17 1.58a5.36 5.36 0 0 0-4.87-2.83c-2 0-3.17.86-3.17 1.92 0 3.39 12.52 1.36 12.52 9.57 0 5.18-5 7.46-9.6 7.46-4.43 0-7.93-2.06-9.63-4.82a1.4 1.4 0 0 1 .47-1.92zm25.19.19v-11.65h-4v-2.28a2.27 2.27 0 0 1 2.29-2.28H182v-4.32a2.29 2.29 0 0 1 1-1.92l4.87-3.23v9.47H194v4.56h-6.15v10.66c0 2.14 1.17 2.78 2.73 2.78a9.1 9.1 0 0 0 3.42-.8v5a15.39 15.39 0 0 1-4.48.67c-4.76-.05-7.65-2.61-7.65-6.68zM98.29 55.36a14.17 14.17 0 1 1-14.16 14.16 14.16 14.16 0 0 1 14.16-14.16zM144.57 59l-15.64-17a41.08 41.08 0 0 0-58.05-3.2 43.91 43.91 0 0 0-3.2 3.2L52 59a14.78 14.78 0 0 0-1 19.93 8 8 0 0 0 1 1L67.68 97c.95 1 1.92 2 3 3V69.55a27.69 27.69 0 1 1 13.47 23.79v14.86A41.1 41.1 0 0 0 128.93 97l15.62-17c.33-.33.66-.67 1-1a14.75 14.75 0 0 0 3.45-9.45A14.91 14.91 0 0 0 144.57 59z" fill="#4d1e9a"/></svg>