<svg xmlns="http://www.w3.org/2000/svg" viewBox="0 0 56 56"><path fill-rule="evenodd" fill="#cb5599" d="M28 10.8c-9.484 0-17.2 7.716-17.2 17.2 0 9.484 7.716 17.2 17.2 17.2 2.083 0 4.102-.364 6.02-1.084l5.757.911 6.424 1.018-.98-6.43c-.283-1.855-.695-4.564-.926-6.098.6-1.77.904-3.62.904-5.517 0-9.484-7.715-17.2-17.199-17.2m0 4.754c6.874 0 12.446 5.572 12.446 12.446 0 1.77-.37 3.453-1.036 4.978-.008.012 1.111 7.354 1.111 7.354s-7.086-1.123-7.107-1.123A12.389 12.389 0 0 1 28 40.446c-6.874 0-12.446-5.572-12.446-12.446S21.126 15.554 28 15.554zM24.59 1.228C24.59.55 25.138 0 25.816 0h4.366c.678 0 1.228.55 1.228 1.228v4.366c0 .677-.55 1.227-1.228 1.227h-4.366c-.678 0-1.228-.55-1.228-1.227V1.228zm19.929 5.43c.48-.48 1.257-.48 1.737 0l3.086 3.086c.48.48.48 1.257 0 1.737l-3.087 3.087c-.479.48-1.256.48-1.736 0l-3.087-3.087a1.228 1.228 0 0 1 0-1.737l3.087-3.086zm10.253 17.931c.679 0 1.228.55 1.228 1.228v4.366c0 .678-.55 1.228-1.228 1.228h-4.366c-.677 0-1.227-.55-1.227-1.228v-4.366c0-.678.55-1.228 1.227-1.228h4.366zM31.41 54.772c0 .679-.55 1.228-1.228 1.228h-4.366c-.678 0-1.228-.55-1.228-1.228v-4.366c0-.677.55-1.227 1.228-1.227h4.366c.678 0 1.228.55 1.228 1.227v4.366zm-19.93-5.43c-.48.48-1.257.48-1.737 0l-3.086-3.086a1.228 1.228 0 0 1 0-1.737l3.087-3.087a1.226 1.226 0 0 1 1.736 0l3.087 3.087c.48.48.48 1.257 0 1.737l-3.087 3.086zM1.228 31.411A1.23 1.23 0 0 1 0 30.183v-4.366c0-.678.55-1.228 1.228-1.228h4.366c.677 0 1.227.55 1.227 1.228v4.366c0 .678-.55 1.228-1.227 1.228H1.228zm5.43-19.93a1.227 1.227 0 0 1 0-1.737l3.086-3.086c.48-.48 1.257-.48 1.737 0l3.087 3.087c.48.479.48 1.256 0 1.736l-3.087 3.087c-.48.48-1.257.48-1.737 0L6.658 11.48z"/></svg>