<svg xmlns="http://www.w3.org/2000/svg" xmlns:xlink="http://www.w3.org/1999/xlink" width="110" height="110" viewBox="0 0 279 279"><defs><path id="a" d="M.06 279h278.556V.402H.06z"/></defs><g fill="none" fill-rule="evenodd"><mask id="b" fill="#fff"><use xlink:href="#a"/></mask><path d="M278.616 139.701c0 76.925-62.372 139.299-139.311 139.299C62.37 279 0 216.626 0 139.701 0 62.774 62.37.402 139.305.402c76.939 0 139.311 62.372 139.311 139.299" fill="#991782" mask="url(#b)"/><path d="M226.667 188.049h2.241v6.615c1.836-4.147 5.722-7.159 10.351-6.982v2.476h-.239c-5.403 0-10.112 4.069-10.112 11.672v9.571h-2.241v-23.352zm-9.987-6.099h2.795v-3.081h-2.795v3.081zm.267 29.451h2.253v-23.352h-2.253v23.352zm-27.261-6.772v-.116c0-4.837 4.165-7.589 10.213-7.589 3.249 0 5.497.426 7.739 1.005v-1.005c0-4.694-2.889-7.139-7.7-7.139-2.845 0-5.177.77-7.324 1.876l-.834-1.956c2.564-1.192 5.087-2.023 8.299-2.023 3.163 0 5.678.858 7.366 2.567 1.561 1.55 2.39 3.697 2.39 6.6v14.552h-2.197v-3.88c-1.62 2.227-4.49 4.427-8.941 4.427-4.353 0-9.011-2.459-9.011-7.319zm17.99-1.961v-2.671c-1.968-.5-4.572-1.04-7.92-1.04-4.938 0-7.697 2.175-7.697 5.448v.088c0 3.374 3.201 5.338 6.78 5.338 4.764 0 8.837-2.906 8.837-7.163zM64.692 144.117s-1.569-.14-1.961-.224c-.387-.083-1.286-.373-1.309-.772l-.004-.008v-.007c0-.003.003-.006.004-.008.023-.399.922-.69 1.309-.772.392-.084 1.961-.224 1.961-.224l33.271-1.477 7.415-24.376a.56.56 0 0 1 .037-.138c.081-.3.125-.611.125-.941 0-1.89-1.52-3.419-3.408-3.419H85.539a3.415 3.415 0 0 0-3.262 2.405 1.974 1.974 0 0 0-.069.319l-5.772 22.012-6.606-22.126-.232-.753a3.414 3.414 0 0 0-3.124-2.069H51.355a3.383 3.383 0 0 0-3.237 2.399l-6.645 22.308-5.534-21.771c-.031-.104-.07-.217-.095-.319a3.411 3.411 0 0 0-3.254-2.405H15.659a3.414 3.414 0 0 0-3.413 3.419c0 .362.045.695.158.996l16.281 54.329.061.227a3.439 3.439 0 0 0 3.238 2.294h16.023a3.404 3.404 0 0 0 3.249-2.395l7.596-23.669 7.323 23.493c.007.05.024.091.03.125l.082.206c.013.045.031.093.045.146a3.432 3.432 0 0 0 3.15 2.094h16.139a3.41 3.41 0 0 0 3.175-2.195l.155-.478c0-.01 0-.041.007-.054l7.581-24.956-31.847-1.216m64.355-4.871c.915-3.786 3.617-6.749 7.046-7.714.146-1.659 1.037-11.657 1.296-12.302a1.096 1.096 0 0 1 1.024-.717h.187c.093 0 .742.013 1.024.717.259.645 1.151 10.643 1.297 12.302 3.428.965 6.13 3.928 7.046 7.714l24.725 1.096a35.062 35.062 0 0 0-.011-.308c-1-16.297-14.832-29.728-34.017-29.728-19.323 0-33.277 13.664-34.235 30.032l24.618-1.092m18.371 7.35c-1.548 3.751-4.951 6.362-8.911 6.362s-7.363-2.611-8.911-6.362l-25.053-.957c1.661 15.7 15.245 28.374 33.904 28.374 18.68 0 32.299-12.77 34.09-28.377l-25.119.96m114.155-34.845h-16.601a3.421 3.421 0 0 0-3.263 2.392c-.03.115-.062.228-.072.332l-5.757 22.012-6.618-22.116-.244-.763a3.358 3.358 0 0 0-3.118-2.069h-15.099a3.43 3.43 0 0 0-3.27 2.399l-6.624 22.336-5.541-21.799c-.019-.104-.062-.217-.088-.332a3.417 3.417 0 0 0-3.256-2.392h-16.926a3.413 3.413 0 0 0-3.415 3.419c0 .352.056.695.155 1.024l7.334 24.436 33.16 1.472s1.569.14 1.96.224c.388.082 1.287.373 1.31.772 0 .002.004.005.004.008v.007c0 .002-.004.004-.004.008-.023.399-.922.689-1.31.772-.391.084-1.96.224-1.96.224l-31.736 1.213 7.535 25.155.058.216a3.414 3.414 0 0 0 3.225 2.315h16.02a3.417 3.417 0 0 0 3.262-2.395l7.586-23.669 7.321 23.493c.018.05.038.074.058.125l.066.206c.007.055.02.093.04.146.535 1.225 1.73 2.094 3.157 2.094h16.128a3.418 3.418 0 0 0 3.185-2.195l.151-.478c0-.01 0-.041.013-.054l16.413-54.04c.013-.038.017-.091.03-.138a3.41 3.41 0 0 0-3.269-4.36" fill="#FFF"/></g></svg>